<?xml version="1.0" encoding="UTF-8" standalone="no"?>
<!DOCTYPE svg PUBLIC "-//W3C//DTD SVG 1.1//EN" "http://www.w3.org/Graphics/SVG/1.1/DTD/svg11.dtd">
<svg xmlns="http://www.w3.org/2000/svg" version="1.1" viewBox="0.00 0.00 1254.00 1254.00">
<path fill="#634930" d="
  M 683.02 611.48
  A 0.55 0.54 66.1 0 1 682.28 611.19
  L 642.81 515.93
  A 1.13 1.12 -19.8 0 0 641.43 515.29
  Q 627.20 519.89 612.85 522.30
  Q 597.43 524.89 576.16 524.85
  Q 563.10 524.82 550.54 522.58
  Q 536.16 520.00 525.51 516.49
  Q 509.24 511.11 493.16 500.87
  Q 459.49 479.43 444.81 442.68
  C 436.04 420.72 432.77 394.82 437.34 371.84
  Q 442.25 347.14 454.79 326.86
  C 470.78 300.99 497.22 281.39 526.50 272.83
  Q 541.87 268.34 557.49 266.82
  Q 572.09 265.40 589.01 267.60
  C 607.77 270.03 624.62 276.87 640.12 285.89
  C 645.24 288.87 652.93 290.48 656.81 285.19
  A 1.21 1.21 0.0 0 1 658.95 286.26
  L 644.58 332.85
  A 0.72 0.71 17.0 0 1 643.68 333.32
  L 642.17 332.86
  A 0.86 0.85 -74.1 0 1 641.60 331.82
  Q 644.56 320.73 640.80 310.21
  C 636.95 299.42 630.58 292.27 621.48 285.51
  Q 615.99 281.43 607.76 278.32
  Q 589.98 271.62 571.52 272.21
  Q 553.82 272.78 540.21 276.96
  Q 538.74 277.41 529.46 281.09
  C 523.27 283.54 519.72 286.42 513.89 289.91
  Q 511.52 291.32 508.01 294.03
  Q 493.08 305.55 483.35 321.85
  C 479.15 328.88 475.24 336.34 472.47 343.95
  Q 458.98 381.06 467.82 420.19
  Q 468.48 423.12 471.74 433.24
  C 474.43 441.57 480.16 452.45 483.35 458.12
  Q 484.32 459.86 491.45 469.34
  C 503.03 484.76 519.47 496.96 536.80 505.03
  Q 556.28 514.09 579.47 516.63
  Q 607.84 519.74 637.78 511.55
  Q 639.28 511.14 640.14 510.71
  A 0.54 0.54 0.0 0 0 640.41 510.01
  Q 619.09 458.83 603.53 422.29
  C 599.02 411.70 596.48 405.87 591.88 398.19
  C 585.03 386.74 573.09 379.93 559.73 378.56
  Q 552.46 377.82 547.09 377.87
  A 1.16 1.16 0.0 0 1 545.92 376.71
  L 545.92 375.39
  A 1.11 1.11 0.0 0 1 547.03 374.28
  L 675.05 374.28
  A 0.75 0.75 0.0 0 1 675.80 375.03
  L 675.80 377.02
  A 0.78 0.78 0.0 0 1 675.03 377.80
  C 661.73 377.95 656.43 377.86 645.23 378.90
  Q 638.85 379.50 633.86 381.32
  C 623.48 385.09 624.89 394.35 627.92 402.85
  C 629.72 407.92 631.91 412.51 633.96 418.37
  C 636.28 425.01 639.44 431.09 641.43 436.55
  Q 643.86 443.18 645.17 446.14
  Q 650.48 458.09 657.28 475.34
  C 661.28 485.48 665.63 495.25 669.58 505.69
  C 671.79 511.55 674.43 516.80 676.68 523.13
  C 678.69 528.81 682.12 535.38 684.35 541.31
  Q 687.69 550.20 692.75 561.96
  A 0.37 0.37 0.0 0 0 693.44 561.94
  Q 697.19 551.92 698.44 547.96
  Q 700.36 541.86 702.18 537.36
  C 703.65 533.71 704.84 528.97 706.24 525.00
  Q 731.03 454.74 731.83 452.22
  C 734.09 445.10 737.96 436.03 740.11 428.73
  Q 742.09 422.00 744.15 417.31
  C 746.19 412.68 747.47 407.24 749.43 401.99
  C 753.63 390.78 757.70 379.01 756.35 366.94
  C 755.11 355.90 745.12 349.06 734.63 347.63
  Q 728.17 346.76 723.52 346.60
  A 0.79 0.78 1.1 0 1 722.76 345.82
  L 722.76 344.26
  A 0.82 0.81 0.0 0 1 723.58 343.45
  L 815.31 343.45
  A 0.67 0.67 0.0 0 1 815.98 344.12
  L 815.98 345.90
  A 0.81 0.81 0.0 0 1 815.22 346.71
  C 798.19 347.89 786.98 352.37 776.40 363.44
  Q 771.52 368.54 766.59 377.26
  Q 760.75 387.59 756.71 398.40
  Q 752.30 410.20 752.14 410.62
  Q 749.50 417.52 748.59 420.45
  C 745.63 430.05 742.14 438.43 739.31 447.63
  C 737.47 453.60 734.82 460.14 732.54 466.78
  Q 713.04 523.61 707.59 539.81
  Q 700.16 561.89 694.88 576.76
  Q 691.80 585.43 689.17 594.10
  Q 687.25 600.48 683.22 611.38
  A 0.14 0.04 -69.8 0 1 683.13 611.50
  Q 683.05 611.47 683.02 611.48
  Z"
/>
<path fill="#634930" d="
  M 757.75 419.22
  L 757.74 419.20
  A 0.52 0.52 0.0 0 1 757.89 418.50
  Q 769.42 410.71 775.80 407.78
  C 785.56 403.30 800.73 400.91 811.53 404.57
  Q 820.17 407.50 825.14 410.69
  C 833.90 416.29 841.09 425.24 844.82 435.49
  Q 847.06 441.65 847.63 443.57
  C 849.06 448.35 849.35 452.70 849.75 457.86
  Q 851.19 476.19 845.21 494.26
  C 840.56 508.32 833.58 521.39 824.33 533.39
  Q 809.28 552.92 789.72 567.97
  Q 777.58 577.32 764.75 585.50
  Q 763.05 586.58 718.65 613.89
  Q 713.96 616.77 699.35 627.86
  Q 686.02 637.99 672.28 654.38
  C 668.92 658.39 666.16 663.06 662.77 667.72
  C 658.91 673.01 655.62 679.69 653.09 685.47
  A 0.37 0.36 -46.7 0 1 652.43 685.49
  Q 643.83 668.81 630.17 654.12
  Q 625.24 648.82 617.40 642.25
  C 613.27 638.77 605.72 632.08 598.96 627.37
  C 590.28 621.31 581.92 615.07 573.65 609.68
  C 564.50 603.71 556.52 597.93 549.14 593.21
  C 539.74 587.19 533.87 582.13 524.84 574.89
  Q 520.19 571.16 515.83 566.43
  Q 509.96 560.06 507.52 557.28
  Q 501.87 550.85 495.38 538.73
  Q 488.89 526.61 486.12 510.95
  A 0.46 0.46 0.0 0 1 486.47 510.43
  L 486.49 510.42
  A 0.48 0.48 0.0 0 1 487.06 510.75
  Q 492.66 529.34 505.66 544.62
  C 509.78 549.47 515.37 556.15 520.79 560.45
  C 526.17 564.72 531.10 569.61 536.79 573.40
  C 545.48 579.20 553.32 584.90 561.78 590.07
  Q 587.77 605.94 596.02 611.50
  Q 613.18 623.05 622.83 631.70
  Q 625.54 634.13 632.06 641.02
  C 641.16 650.63 648.57 661.49 654.52 673.17
  A 0.39 0.39 0.0 0 0 655.22 673.17
  Q 659.26 665.05 662.04 660.31
  Q 663.19 658.34 672.13 646.11
  Q 677.06 639.37 683.62 633.06
  Q 697.72 619.52 708.93 611.43
  Q 720.04 603.43 742.48 588.51
  C 765.91 572.93 788.83 556.00 806.52 533.79
  Q 822.54 513.69 829.58 489.66
  Q 831.58 482.82 832.62 470.50
  Q 833.84 455.83 829.11 440.91
  C 826.03 431.20 820.07 424.46 812.29 418.28
  Q 809.43 416.01 804.99 414.51
  C 789.02 409.10 773.16 411.29 758.40 419.39
  A 0.49 0.49 0.0 0 1 757.75 419.22
  Z"
/>
<path fill="#634930" d="
  M 384.89 716.81
  A 0.35 0.34 72.7 0 1 385.43 717.10
  L 385.44 745.15
  A 0.46 0.46 0.0 0 1 384.86 745.60
  L 384.84 745.60
  A 0.84 0.84 0.0 0 1 384.25 744.77
  Q 384.64 731.93 374.54 724.45
  Q 366.49 718.48 355.39 716.56
  Q 336.17 713.23 319.60 723.50
  C 307.18 731.19 298.13 745.91 294.63 759.87
  Q 293.93 762.67 293.05 769.95
  C 291.27 784.71 294.15 799.55 301.13 812.14
  Q 307.05 822.83 318.64 830.19
  C 337.38 842.06 362.64 841.18 380.22 827.29
  A 4.34 4.33 -19.3 0 0 381.87 823.87
  Q 381.84 795.59 381.68 792.15
  C 381.37 785.38 370.26 786.79 365.45 786.49
  A 0.45 0.45 0.0 0 1 365.03 786.04
  L 365.03 785.69
  A 0.32 0.31 -0.0 0 1 365.35 785.38
  L 403.42 785.38
  A 0.20 0.19 0.0 0 1 403.62 785.57
  L 403.62 785.89
  A 0.36 0.36 0.0 0 1 403.28 786.25
  C 398.90 786.54 393.47 786.30 393.16 792.44
  Q 392.71 801.20 392.90 807.49
  C 393.24 818.35 392.75 827.72 392.95 838.52
  A 0.62 0.61 -0.9 0 1 392.33 839.15
  L 392.07 839.15
  A 0.40 0.40 0.0 0 1 391.67 838.75
  C 391.66 834.76 392.23 831.28 389.25 829.42
  Q 387.42 828.28 385.69 829.25
  Q 378.45 833.28 369.66 836.41
  Q 349.14 843.71 326.85 838.35
  Q 309.66 834.21 296.60 821.19
  Q 291.52 816.11 289.21 812.12
  Q 281.88 799.44 280.72 786.56
  Q 279.53 773.26 282.30 762.07
  C 287.38 741.59 302.76 724.71 322.64 717.47
  Q 337.72 711.98 355.51 713.95
  C 360.55 714.50 367.88 715.67 372.28 717.49
  C 375.41 718.78 382.13 722.25 384.03 718.04
  Q 384.44 717.12 384.89 716.81
  Z"
/>
<path fill="#634930" d="
  M 466.57 836.64
  A 0.31 0.31 0.0 0 0 466.84 837.11
  Q 484.74 836.94 502.48 841.82
  Q 505.75 842.72 519.37 846.57
  Q 525.45 848.29 531.02 850.27
  C 535.55 851.87 540.60 853.07 546.63 855.01
  C 570.87 862.84 593.85 870.11 616.65 874.80
  Q 628.72 877.28 643.24 878.03
  Q 658.41 878.82 671.07 874.73
  C 686.12 869.87 697.91 856.12 704.34 841.82
  A 2.10 2.07 -46.0 0 0 704.32 840.04
  Q 701.07 833.35 699.29 828.58
  C 695.92 819.54 691.15 809.57 687.95 801.58
  Q 681.42 785.26 674.93 771.05
  C 673.18 767.22 671.02 766.85 667.34 766.42
  A 0.52 0.51 -84.2 0 1 666.89 765.86
  L 666.91 765.61
  A 0.19 0.19 0.0 0 1 667.10 765.44
  L 693.60 765.44
  A 0.33 0.32 90.0 0 1 693.92 765.77
  L 693.92 766.12
  A 0.37 0.37 0.0 0 1 693.56 766.49
  C 688.70 766.67 684.78 767.16 687.36 773.43
  C 690.04 779.91 691.65 784.98 694.35 790.83
  Q 698.97 800.81 702.19 809.82
  C 704.39 815.99 707.18 821.22 709.25 826.99
  A 0.53 0.52 -43.7 0 0 710.23 827.01
  C 720.94 801.16 730.44 773.95 740.33 747.36
  C 744.81 735.32 752.15 723.85 763.99 718.20
  Q 770.93 714.89 779.92 715.11
  Q 792.59 715.42 808.30 715.14
  A 0.34 0.34 0.0 0 1 808.64 715.48
  L 808.64 715.81
  A 0.32 0.31 -89.1 0 1 808.32 716.13
  C 805.72 716.06 801.17 716.08 800.80 719.22
  Q 800.64 720.53 802.19 723.64
  C 805.34 729.96 807.26 733.47 809.30 738.62
  C 811.80 744.91 814.81 750.51 818.18 758.15
  Q 822.91 768.86 833.28 791.56
  C 838.54 803.08 842.55 812.88 847.81 823.58
  A 0.38 0.38 0.0 0 0 848.50 823.54
  Q 854.46 807.12 859.92 792.97
  Q 868.46 770.85 883.47 730.25
  C 886.18 722.91 888.34 716.12 877.27 716.13
  A 0.43 0.43 0.0 0 1 876.84 715.70
  L 876.84 715.42
  A 0.16 0.16 0.0 0 1 877.00 715.26
  L 898.96 715.26
  A 0.27 0.26 0.0 0 1 899.23 715.52
  L 899.23 715.79
  A 0.36 0.36 0.0 0 1 898.86 716.15
  C 891.33 715.88 889.15 720.84 887.00 726.74
  Q 867.60 779.97 844.79 838.85
  A 0.59 0.58 43.3 0 1 843.71 838.88
  Q 837.10 824.34 834.17 818.19
  C 830.10 809.64 827.88 803.41 823.90 795.69
  Q 823.21 794.34 819.78 786.69
  Q 808.37 761.19 796.67 736.36
  Q 793.39 729.38 792.07 725.96
  Q 788.20 715.95 777.79 716.54
  C 755.02 717.81 746.52 736.24 739.72 754.67
  C 725.12 794.19 717.64 815.38 705.12 844.41
  Q 702.63 850.18 698.15 856.91
  Q 692.32 865.65 683.76 871.47
  C 664.48 884.57 639.84 886.89 616.96 883.34
  Q 592.10 879.49 568.64 870.59
  C 559.87 867.26 546.66 862.02 534.33 856.77
  Q 516.20 849.06 500.22 843.78
  C 493.03 841.40 485.64 839.74 477.79 839.19
  Q 465.54 838.34 453.26 838.81
  A 0.52 0.52 0.0 0 1 452.80 838.01
  Q 461.66 824.39 465.98 816.97
  C 469.45 811.03 474.63 804.14 478.17 797.89
  C 480.61 793.58 484.21 789.00 487.47 783.93
  Q 494.50 773.00 498.29 767.62
  A 0.34 0.34 0.0 0 0 498.01 767.08
  Q 494.33 767.06 473.75 767.25
  C 462.43 767.36 459.22 772.92 455.61 782.47
  A 0.56 0.55 -71.7 0 1 454.94 782.81
  L 454.92 782.80
  A 0.54 0.54 0.0 0 1 454.58 782.19
  L 457.87 765.87
  A 0.57 0.56 5.5 0 1 458.43 765.42
  L 510.77 765.42
  A 0.83 0.82 18.6 0 1 511.43 766.74
  C 506.18 773.61 502.58 780.31 497.74 787.55
  Q 492.88 794.80 491.52 797.40
  C 488.43 803.27 484.21 807.88 480.97 813.71
  Q 478.03 819.00 473.76 825.14
  Q 471.59 828.25 466.57 836.64
  Z"
/>
<path fill="#634930" d="
  M 600.09 729.08
  L 600.08 728.79
  A 0.22 0.21 -4.8 0 1 600.27 728.58
  Q 609.21 727.45 617.08 723.47
  A 0.52 0.52 0.0 0 1 617.84 723.93
  Q 617.79 779.28 617.84 830.39
  C 617.85 834.69 619.59 837.27 623.55 837.58
  Q 625.28 837.71 625.81 837.80
  A 0.28 0.28 0.0 0 1 626.04 838.08
  L 626.04 838.41
  A 0.18 0.17 90.0 0 1 625.87 838.59
  L 599.70 838.60
  A 0.07 0.07 0.0 0 1 599.63 838.53
  L 599.63 838.17
  A 0.39 0.38 -4.4 0 1 599.96 837.79
  C 602.81 837.41 605.10 837.52 606.67 834.43
  Q 607.35 833.09 607.36 829.53
  Q 607.47 798.20 607.31 734.15
  Q 607.28 729.47 600.56 729.56
  A 0.48 0.48 0.0 0 1 600.09 729.08
  Z"
/>
<path fill="#634930" d="
  M 637.09 729.02
  L 637.09 728.73
  A 0.23 0.21 -4.8 0 1 637.28 728.52
  Q 646.23 727.39 654.11 723.41
  A 0.52 0.52 0.0 0 1 654.87 723.87
  Q 654.81 779.31 654.84 830.49
  C 654.85 834.80 656.59 837.38 660.55 837.69
  Q 662.29 837.83 662.82 837.92
  A 0.29 0.28 -85.2 0 1 663.05 838.20
  L 663.05 838.53
  A 0.18 0.17 90.0 0 1 662.88 838.71
  L 636.67 838.71
  A 0.07 0.07 0.0 0 1 636.60 838.64
  L 636.60 838.28
  A 0.39 0.38 -4.4 0 1 636.93 837.90
  C 639.78 837.52 642.08 837.63 643.65 834.53
  Q 644.33 833.19 644.34 829.63
  Q 644.46 798.25 644.32 734.10
  Q 644.30 729.42 637.57 729.50
  A 0.48 0.48 0.0 0 1 637.09 729.02
  Z"
/>
<circle fill="#634930" cx="428.20" cy="744.92" r="5.62"/>
<circle fill="#634930" cx="902.05" cy="744.83" r="5.62"/>
<path fill="#634930" d="
  M 587.71 788.91
  A 0.31 0.30 -0.9 0 1 587.40 789.22
  L 534.27 789.22
  A 0.94 0.94 0.0 0 0 533.35 789.98
  Q 531.18 800.58 533.89 811.08
  Q 535.66 817.91 537.77 821.67
  C 542.07 829.33 551.36 835.04 560.22 834.99
  Q 579.09 834.87 587.40 818.54
  A 0.52 0.52 0.0 0 1 588.37 818.90
  C 585.75 829.28 576.13 836.87 566.01 839.08
  C 556.12 841.23 541.83 839.22 534.04 831.98
  C 524.39 823.03 521.62 813.81 521.74 800.72
  C 521.95 778.12 540.44 760.88 563.20 764.54
  C 575.71 766.55 587.29 775.52 587.71 788.91
  Z
  M 576.87 787.11
  C 576.31 771.44 564.13 762.09 548.91 767.22
  C 541.10 769.85 535.72 779.29 533.94 786.69
  A 0.76 0.76 0.0 0 0 534.68 787.63
  L 576.37 787.63
  A 0.50 0.50 0.0 0 0 576.87 787.11
  Z"
/>
<path fill="#634930" d="
  M 1022.19 837.97
  A 0.32 0.32 0.0 0 1 1022.09 838.60
  L 997.34 838.60
  A 0.15 0.13 -14.9 0 1 997.22 838.54
  L 997.02 838.24
  A 0.37 0.37 0.0 0 1 997.33 837.66
  Q 1004.67 837.67 1004.67 831.24
  Q 1004.71 789.35 1004.59 775.31
  Q 1004.53 769.51 998.27 770.12
  A 0.53 0.53 0.0 0 1 997.69 769.59
  L 997.69 769.31
  A 0.36 0.35 -3.7 0 1 998.00 768.96
  Q 1006.05 767.99 1013.76 764.63
  A 0.60 0.59 77.9 0 1 1014.60 765.18
  L 1014.60 778.93
  A 0.30 0.29 62.1 0 0 1015.14 779.10
  Q 1020.01 771.78 1027.72 767.70
  C 1034.14 764.30 1043.21 763.40 1050.12 765.33
  C 1059.30 767.89 1063.59 776.75 1063.65 786.00
  C 1063.70 794.03 1063.89 805.82 1063.69 816.63
  Q 1063.56 823.62 1063.85 830.92
  C 1064.07 836.37 1065.94 836.84 1070.66 837.82
  A 0.41 0.41 0.0 0 1 1070.58 838.63
  L 1046.53 838.63
  A 0.47 0.46 88.7 0 1 1046.07 838.18
  L 1046.07 838.16
  A 0.53 0.52 -1.1 0 1 1046.59 837.63
  C 1054.11 837.49 1053.41 831.85 1053.40 825.53
  Q 1053.31 789.58 1053.39 784.51
  C 1053.49 778.65 1051.93 773.09 1046.98 769.91
  C 1035.84 762.75 1021.34 772.21 1015.17 781.82
  A 2.60 2.60 0.0 0 0 1014.76 783.22
  Q 1014.62 809.93 1014.67 829.97
  C 1014.68 833.05 1015.59 837.03 1019.30 837.42
  Q 1021.13 837.62 1022.19 837.97
  Z"
/>
<path fill="#634930" d="
  M 433.24 765.11
  Q 433.60 767.14 433.60 772.25
  Q 433.56 800.35 433.52 829.75
  C 433.51 836.37 435.66 837.35 441.62 837.84
  A 0.29 0.29 0.0 0 1 441.88 838.19
  L 441.83 838.46
  A 0.25 0.24 -84.2 0 1 441.59 838.66
  L 415.34 838.66
  A 0.20 0.20 0.0 0 1 415.14 838.46
  L 415.14 838.19
  A 0.41 0.41 0.0 0 1 415.56 837.78
  Q 422.85 838.06 422.88 830.95
  Q 422.97 805.75 422.92 774.92
  C 422.91 770.62 419.09 770.23 415.75 769.96
  A 0.48 0.48 0.0 0 1 415.73 769.00
  Q 424.61 767.91 432.67 764.79
  A 0.43 0.42 -15.4 0 1 433.24 765.11
  Z"
/>
<path fill="#634930" d="
  M 915.01 837.72
  A 0.42 0.41 -87.0 0 1 915.38 838.14
  L 915.38 838.39
  A 0.22 0.22 0.0 0 1 915.16 838.61
  L 890.00 838.61
  A 0.36 0.36 0.0 0 1 889.64 838.25
  L 889.64 837.94
  A 0.34 0.34 0.0 0 1 889.98 837.60
  C 896.61 837.71 897.44 833.96 897.36 827.96
  Q 897.09 807.98 897.42 777.85
  C 897.48 772.69 896.03 769.64 890.52 770.16
  A 0.52 0.51 -3.0 0 1 889.95 769.65
  L 889.95 769.40
  A 0.20 0.20 0.0 0 1 890.14 769.20
  Q 898.18 768.43 906.79 764.55
  A 0.50 0.50 0.0 0 1 907.49 765.02
  Q 907.40 783.67 907.56 831.54
  C 907.58 836.48 910.92 837.30 915.01 837.72
  Z"
/>
<path fill="#634930" d="
  M 931.62 782.55
  L 931.62 774.91
  A 1.67 1.66 66.7 0 1 932.07 773.77
  C 939.47 765.90 948.37 764.18 959.05 764.50
  C 971.43 764.87 979.70 772.29 980.11 785.04
  Q 980.63 801.57 980.22 829.52
  C 980.09 837.73 987.14 836.38 990.29 831.34
  A 0.61 0.59 24.2 0 1 990.97 831.09
  L 991.08 831.13
  A 0.45 0.45 0.0 0 1 991.34 831.78
  Q 987.65 838.63 980.27 839.14
  C 971.17 839.77 969.38 831.92 970.04 824.73
  A 0.46 0.46 0.0 0 0 969.20 824.43
  C 966.74 828.10 963.20 832.31 959.37 834.70
  Q 947.05 842.39 933.82 837.47
  C 931.36 836.56 928.87 834.52 927.28 832.26
  C 922.03 824.82 922.67 814.68 929.01 808.00
  C 934.98 801.73 943.55 799.58 951.67 797.39
  Q 960.30 795.05 968.44 791.71
  A 2.35 2.34 -10.3 0 0 969.89 789.62
  C 970.01 785.42 970.50 777.37 968.13 773.61
  C 963.92 766.96 956.34 765.46 948.81 767.08
  C 940.28 768.91 935.27 774.94 932.53 782.70
  A 0.47 0.47 0.0 0 1 931.62 782.55
  Z
  M 969.88 793.40
  A 0.35 0.34 78.3 0 0 969.40 793.08
  Q 962.11 796.14 953.49 798.88
  C 941.66 802.63 931.70 809.94 934.22 823.14
  C 936.45 834.83 948.12 837.36 957.61 832.79
  Q 965.79 828.86 969.71 820.06
  A 1.98 1.94 57.6 0 0 969.88 819.26
  L 969.88 793.40
  Z"
/>
<path fill="#634930" d="
  M 1085.43 782.51
  L 1085.43 774.87
  A 1.67 1.66 66.7 0 1 1085.88 773.73
  C 1093.29 765.86 1102.19 764.14 1112.88 764.46
  C 1125.26 764.84 1133.53 772.26 1133.94 785.02
  Q 1134.45 801.55 1134.03 829.51
  C 1133.90 837.72 1140.95 836.37 1144.11 831.33
  A 0.61 0.59 24.2 0 1 1144.79 831.08
  L 1144.90 831.12
  A 0.45 0.45 0.0 0 1 1145.16 831.77
  Q 1141.46 838.63 1134.08 839.13
  C 1124.98 839.76 1123.19 831.91 1123.85 824.72
  A 0.46 0.46 0.0 0 0 1123.01 824.42
  C 1120.55 828.09 1117.01 832.30 1113.17 834.69
  Q 1100.85 842.37 1087.62 837.45
  C 1085.15 836.54 1082.66 834.50 1081.07 832.24
  C 1075.83 824.79 1076.47 814.65 1082.81 807.97
  C 1088.79 801.70 1097.36 799.55 1105.48 797.36
  Q 1114.12 795.02 1122.26 791.68
  A 2.35 2.34 -10.3 0 0 1123.71 789.59
  C 1123.83 785.39 1124.33 777.34 1121.96 773.58
  C 1117.75 766.92 1110.16 765.42 1102.63 767.04
  C 1094.10 768.87 1089.08 774.90 1086.34 782.66
  A 0.47 0.47 0.0 0 1 1085.43 782.51
  Z
  M 1123.84 793.41
  A 0.35 0.34 79.0 0 0 1123.37 793.09
  Q 1116.02 796.08 1107.34 798.73
  C 1095.43 802.36 1085.36 809.58 1087.74 822.85
  C 1089.84 834.60 1101.52 837.27 1111.09 832.79
  Q 1119.34 828.94 1123.37 820.16
  A 1.99 1.94 58.3 0 0 1123.55 819.36
  L 1123.84 793.41
  Z"
/>
<path fill="#634930" d="
  M 137.23 772.07
  Q 139.99 772.09 156.75 771.93
  C 174.58 771.76 184.57 784.76 183.29 801.67
  Q 182.85 807.57 180.17 812.24
  C 173.74 823.49 164.21 825.85 151.49 825.51
  Q 143.95 825.31 137.01 825.56
  A 0.42 0.41 -0.7 0 1 136.58 825.15
  L 136.58 824.88
  A 0.10 0.10 0.0 0 1 136.67 824.78
  Q 140.30 824.62 140.31 820.31
  Q 140.37 786.05 140.22 775.80
  Q 140.19 773.43 137.19 772.67
  A 0.14 0.13 -8.2 0 1 137.09 772.60
  Q 136.96 772.38 137.04 772.19
  A 0.22 0.21 -76.3 0 1 137.23 772.07
  Z
  M 146.03 774.03
  L 146.11 823.51
  A 0.93 0.93 0.0 0 0 147.04 824.44
  L 155.55 824.42
  A 23.33 21.60 89.9 0 0 177.11 801.05
  L 177.11 796.37
  A 23.33 21.60 89.9 0 0 155.47 773.08
  L 146.96 773.10
  A 0.93 0.93 0.0 0 0 146.03 774.03
  Z"
/>
<path fill="#634930" d="
  M 241.04 819.45
  A 0.36 0.35 64.6 0 0 240.40 819.22
  Q 233.88 828.01 222.94 825.09
  Q 218.52 823.91 217.47 819.06
  C 215.97 812.08 220.92 808.13 227.00 806.50
  C 233.85 804.66 236.83 804.19 240.22 802.25
  A 1.14 1.13 -12.2 0 0 240.78 801.39
  C 241.38 796.01 240.13 791.33 234.18 790.50
  Q 224.52 789.15 221.61 798.55
  A 0.52 0.52 0.0 0 1 220.60 798.45
  Q 219.95 792.86 225.40 790.60
  C 231.64 788.01 241.37 788.20 245.14 794.98
  Q 246.34 797.13 246.16 802.10
  Q 246.02 806.25 246.23 822.00
  Q 246.24 822.87 246.35 823.05
  A 1.88 1.65 -35.6 0 0 249.07 823.32
  Q 249.91 822.61 250.64 821.48
  A 0.39 0.39 0.0 0 1 251.16 821.35
  L 251.23 821.39
  A 0.39 0.39 0.0 0 1 251.39 821.90
  C 249.55 825.73 242.86 828.03 241.02 823.10
  A 1.94 1.90 36.2 0 1 240.90 822.38
  L 241.04 819.45
  Z
  M 240.61 803.33
  C 238.77 804.11 236.80 805.15 234.46 805.83
  C 228.24 807.63 221.77 809.66 222.62 817.44
  C 223.10 821.86 226.64 824.17 230.92 823.65
  Q 237.24 822.87 240.69 816.54
  A 2.06 1.98 -32.0 0 0 240.93 815.59
  L 240.93 803.55
  A 0.24 0.23 79.1 0 0 240.61 803.33
  Z"
/>
<path fill="#634930" d="
  M 188.76 825.51
  A 0.13 0.13 0.0 0 1 188.63 825.38
  L 188.63 825.09
  A 0.19 0.18 -5.8 0 1 188.78 824.91
  C 191.17 824.45 192.27 823.41 192.32 820.76
  Q 192.60 807.85 192.10 794.12
  A 1.44 1.39 -67.4 0 0 191.76 793.25
  Q 190.92 792.30 189.21 792.20
  A 0.37 0.36 -88.4 0 1 188.87 791.83
  L 188.87 791.45
  A 0.18 0.17 83.8 0 1 189.00 791.28
  L 196.94 789.64
  A 0.61 0.60 -5.8 0 1 197.67 790.23
  L 197.67 795.77
  A 0.32 0.32 0.0 0 0 198.26 795.94
  Q 202.90 788.46 210.88 789.35
  C 214.01 789.70 216.65 791.50 214.75 794.89
  A 1.67 1.67 0.0 0 1 212.16 795.30
  L 209.97 793.28
  A 1.20 1.12 -10.1 0 0 209.57 793.02
  C 203.45 790.39 199.89 794.37 197.87 799.71
  A 2.42 2.12 59.6 0 0 197.73 800.45
  L 197.64 822.05
  A 1.78 1.76 -60.5 0 0 197.90 823.01
  Q 198.87 824.57 201.29 824.72
  A 0.39 0.39 0.0 0 1 201.65 825.11
  L 201.65 825.38
  A 0.13 0.13 0.0 0 1 201.52 825.51
  L 188.76 825.51
  Z"
/>
<circle fill="#634930" cx="259.48" cy="822.45" r="3.21"/>
<path fill="#634930" d="
  M 724.52 908.98
  Q 724.67 909.07 725.37 909.54
  A 1.02 1.02 0.0 0 0 726.85 909.17
  Q 727.41 908.06 727.73 907.80
  A 0.94 0.94 0.0 0 1 729.24 908.75
  Q 728.14 913.05 724.34 911.09
  Q 723.76 910.79 723.20 910.45
  Q 723.06 910.36 722.36 909.88
  A 1.02 1.02 0.0 0 0 720.88 910.25
  Q 720.32 911.36 720.00 911.62
  A 0.94 0.94 0.0 0 1 718.49 910.67
  Q 719.59 906.37 723.39 908.33
  Q 723.97 908.63 724.52 908.98
  Z"
/>
<path fill="#634930" d="
  M 218.72 927.47
  Q 213.09 927.50 212.64 927.54
  A 0.87 0.86 88.8 0 0 211.83 928.40
  L 211.80 937.40
  A 1.13 1.12 -90.0 0 1 210.68 938.53
  L 210.06 938.53
  A 1.20 1.19 90.0 0 1 208.87 937.33
  L 208.87 915.32
  A 1.34 1.33 -90.0 0 1 210.20 913.98
  L 210.70 913.98
  A 0.97 0.96 -90.0 0 1 211.66 914.95
  L 211.66 923.34
  A 1.18 1.17 89.2 0 0 212.86 924.52
  Q 215.71 924.45 218.71 924.43
  Q 221.71 924.42 224.56 924.47
  A 1.18 1.17 -89.7 0 0 225.75 923.28
  L 225.68 914.89
  A 0.97 0.96 89.5 0 1 226.63 913.91
  L 227.13 913.91
  A 1.34 1.33 89.5 0 1 228.47 915.24
  L 228.66 937.25
  A 1.20 1.19 89.5 0 1 227.48 938.46
  L 226.86 938.46
  A 1.13 1.12 89.5 0 1 225.73 937.34
  L 225.63 928.34
  A 0.87 0.86 -89.2 0 0 224.80 927.49
  Q 224.35 927.45 218.72 927.47
  Z"
/>
<path fill="#634930" d="
  M 366.30 919.10
  A 0.13 0.13 0.0 0 0 366.05 919.15
  L 366.05 937.73
  A 0.75 0.74 90.0 0 1 365.31 938.48
  L 363.62 938.48
  A 0.79 0.78 90.0 0 1 362.84 937.69
  L 362.84 914.51
  A 0.65 0.64 90.0 0 1 363.48 913.86
  L 366.52 913.86
  A 1.14 1.13 78.8 0 1 367.57 914.57
  L 374.54 931.39
  A 0.30 0.30 0.0 0 0 375.10 931.39
  L 381.88 914.74
  A 1.08 1.07 10.9 0 1 382.88 914.07
  L 385.97 914.07
  A 0.75 0.75 0.0 0 1 386.72 914.82
  L 386.72 938.14
  A 0.28 0.27 -0.0 0 1 386.44 938.41
  L 383.93 938.41
  A 0.37 0.37 0.0 0 1 383.56 938.04
  L 383.56 919.86
  A 0.27 0.26 -33.9 0 0 383.05 919.76
  L 375.56 938.15
  A 0.74 0.74 0.0 0 1 374.19 938.15
  L 366.30 919.10
  Z"
/>
<path fill="#634930" d="
  M 429.9551 913.6601
  A 12.58 12.18 -92.3 0 1 442.6302 925.7412
  A 12.58 12.18 -92.3 0 1 430.9649 938.7999
  A 12.58 12.18 -92.3 0 1 418.2898 926.7188
  A 12.58 12.18 -92.3 0 1 429.9551 913.6601
  Z
  M 431.0597 916.5092
  A 9.71 8.72 -86.4 0 0 421.7472 925.6525
  A 9.71 8.72 -86.4 0 0 429.8403 935.8908
  A 9.71 8.72 -86.4 0 0 439.1528 926.7475
  A 9.71 8.72 -86.4 0 0 431.0597 916.5092
  Z"
/>
<path fill="#634930" d="
  M 483.38 926.87
  Q 482.54 925.66 478.18 920.03
  A 0.22 0.22 0.0 0 0 477.79 920.16
  L 477.79 937.46
  A 0.95 0.95 0.0 0 1 476.84 938.41
  L 475.58 938.41
  A 0.95 0.95 0.0 0 1 474.63 937.46
  L 474.63 914.65
  A 0.67 0.67 0.0 0 1 475.11 914.01
  Q 477.51 913.33 478.37 914.47
  Q 478.97 915.26 485.81 925.29
  Q 486.64 926.50 491.00 932.13
  A 0.22 0.22 0.0 0 0 491.39 932.00
  L 491.39 914.70
  A 0.95 0.95 0.0 0 1 492.34 913.75
  L 493.60 913.75
  A 0.95 0.95 0.0 0 1 494.55 914.70
  L 494.55 937.51
  A 0.67 0.67 0.0 0 1 494.07 938.15
  Q 491.67 938.83 490.81 937.69
  Q 490.21 936.90 483.38 926.87
  Z"
/>
<path fill="#634930" d="
  M 672.58 938.58
  A 0.28 0.28 0.0 0 0 672.33 938.30
  C 665.73 937.66 661.37 931.77 662.13 925.16
  C 663.31 914.78 676.05 909.16 683.11 917.93
  A 0.87 0.87 0.0 0 1 682.77 919.28
  L 681.67 919.73
  A 1.28 1.27 -35.6 0 1 680.35 919.52
  L 678.24 917.70
  A 2.66 2.63 71.1 0 0 677.05 917.11
  C 662.37 914.12 661.46 936.94 675.52 935.65
  Q 678.51 935.37 680.23 932.95
  A 1.33 1.33 0.0 0 1 682.26 932.78
  L 682.89 933.41
  A 1.14 1.13 -46.9 0 1 682.94 934.96
  Q 679.93 938.41 675.07 938.53
  A 0.54 0.53 78.2 0 0 674.59 939.27
  L 674.76 939.67
  A 0.69 0.68 78.1 0 0 675.41 940.10
  C 680.66 939.99 676.86 948.30 670.64 944.22
  A 0.58 0.58 0.0 0 1 670.54 943.32
  L 670.83 943.04
  A 0.44 0.44 0.0 0 1 671.36 942.97
  Q 673.52 944.21 675.20 943.29
  A 1.10 1.10 0.0 0 0 674.67 941.23
  L 672.92 941.23
  A 0.34 0.34 0.0 0 1 672.58 940.89
  L 672.58 938.58
  Z"
/>
<path fill="#634930" d="
  M 723.89 913.87
  Q 724.89 913.87 725.63 914.29
  A 0.60 0.58 -87.3 0 1 725.90 914.59
  L 735.48 937.70
  A 0.59 0.59 0.0 0 1 734.93 938.51
  L 732.83 938.51
  A 1.16 1.14 -10.9 0 1 731.76 937.80
  L 729.95 933.44
  A 1.00 0.99 -10.9 0 0 729.03 932.83
  Q 728.40 932.83 723.91 932.83
  Q 719.41 932.84 718.78 932.84
  A 1.00 0.99 10.8 0 0 717.86 933.45
  L 716.06 937.82
  A 1.16 1.14 10.8 0 1 714.99 938.53
  L 712.89 938.53
  A 0.59 0.59 0.0 0 1 712.34 937.72
  L 721.87 914.59
  A 0.60 0.58 87.2 0 1 722.14 914.29
  Q 722.87 913.88 723.89 913.87
  Z
  M 723.94 930.05
  Q 724.30 930.05 728.53 930.05
  A 0.26 0.26 0.0 0 0 728.77 929.70
  L 724.18 917.91
  A 0.16 0.15 0.3 0 0 724.12 917.86
  Q 723.93 917.77 723.96 917.77
  Q 723.90 917.77 723.70 917.86
  A 0.16 0.15 -0.6 0 0 723.65 917.91
  L 719.11 929.72
  A 0.26 0.26 0.0 0 0 719.35 930.07
  Q 723.58 930.05 723.94 930.05
  Z"
/>
<path fill="#634930" d="
  M 788.1989 927.2755
  A 10.76 10.76 0.0 0 1 777.8599 938.4407
  L 775.7614 938.5213
  A 10.76 10.76 0.0 0 1 764.5963 928.1823
  L 764.4811 925.1845
  A 10.76 10.76 0.0 0 1 774.8201 914.0193
  L 776.9186 913.9387
  A 10.76 10.76 0.0 0 1 788.0837 924.2777
  L 788.1989 927.2755
  Z
  M 776.7197 916.5478
  A 9.71 8.73 -87.7 0 0 767.6070 925.8996
  A 9.71 8.73 -87.7 0 0 775.9403 935.9522
  A 9.71 8.73 -87.7 0 0 785.0530 926.6004
  A 9.71 8.73 -87.7 0 0 776.7197 916.5478
  Z"
/>
<path fill="#634930" d="
  M 954.66 926.25
  C 954.64 934.79 963.35 938.99 969.56 933.07
  A 1.17 1.16 33.9 0 1 970.80 932.83
  L 971.93 933.29
  A 0.93 0.92 32.2 0 1 972.27 934.77
  C 964.54 943.27 951.10 937.44 951.13 926.24
  C 951.15 915.04 964.62 909.27 972.31 917.81
  A 0.93 0.92 -31.9 0 1 971.96 919.28
  L 970.83 919.74
  A 1.17 1.16 -33.6 0 1 969.59 919.50
  C 963.41 913.54 954.68 917.70 954.66 926.25
  Z"
/>
<path fill="#634930" d="
  M 270.67 932.77
  Q 266.20 932.77 265.57 932.77
  A 0.99 0.98 10.9 0 0 264.66 933.38
  L 262.87 937.71
  A 1.15 1.13 10.9 0 1 261.80 938.42
  L 259.72 938.42
  A 0.59 0.58 11.0 0 1 259.17 937.62
  L 268.67 914.65
  A 0.60 0.58 87.3 0 1 268.93 914.35
  Q 269.67 913.93 270.67 913.93
  Q 271.67 913.93 272.41 914.35
  A 0.60 0.58 -87.3 0 1 272.67 914.65
  L 282.16 937.62
  A 0.59 0.58 -10.9 0 1 281.61 938.43
  L 279.53 938.42
  A 1.15 1.13 -10.8 0 1 278.46 937.72
  L 276.67 933.38
  A 0.99 0.98 -10.8 0 0 275.76 932.77
  Q 275.13 932.77 270.67 932.77
  Z
  M 270.73 930.05
  Q 272.43 930.05 275.05 930.06
  A 0.34 0.34 0.0 0 0 275.37 929.60
  L 270.99 917.85
  A 0.17 0.14 6.8 0 0 270.92 917.77
  Q 270.72 917.67 270.67 917.67
  Q 270.62 917.67 270.43 917.77
  A 0.17 0.14 -7.4 0 0 270.35 917.85
  L 266.09 929.64
  A 0.34 0.34 0.0 0 0 266.41 930.10
  Q 269.03 930.06 270.73 930.05
  Z"
/>
<path fill="#634930" d="
  M 330.38 937.80
  A 0.42 0.41 -16.5 0 1 330.03 938.44
  L 327.71 938.44
  A 1.21 1.19 72.9 0 1 326.71 937.90
  L 321.06 929.38
  A 1.29 1.28 -16.7 0 0 319.99 928.81
  L 316.90 928.81
  A 0.55 0.54 -0.0 0 0 316.35 929.35
  L 316.35 937.81
  A 0.62 0.62 0.0 0 1 315.73 938.43
  L 313.68 938.43
  A 0.56 0.56 0.0 0 1 313.12 937.87
  L 313.12 914.34
  A 0.35 0.35 0.0 0 1 313.48 913.99
  Q 318.52 914.11 321.99 914.11
  C 326.68 914.11 330.17 915.79 330.44 920.52
  Q 330.78 926.56 324.86 928.57
  A 0.41 0.40 -26.0 0 0 324.65 929.17
  L 330.38 937.80
  Z
  M 316.40 917.44
  L 316.36 925.16
  A 0.58 0.58 0.0 0 0 316.94 925.74
  L 322.55 925.77
  A 4.53 4.33 0.3 0 0 327.10 921.47
  L 327.10 921.25
  A 4.53 4.33 0.3 0 0 322.59 916.89
  L 316.98 916.87
  A 0.58 0.58 0.0 0 0 316.40 917.44
  Z"
/>
<rect fill="#634930" x="528.03" y="914.09" width="2.40" height="24.44" rx="0.82"/>
<path fill="#634930" d="
  M 573.34 927.10
  Q 570.59 931.03 568.09 935.13
  A 0.28 0.27 15.5 0 0 568.33 935.55
  L 579.98 935.55
  A 0.73 0.72 -90.0 0 1 580.70 936.28
  L 580.70 937.62
  A 0.71 0.70 90.0 0 1 580.00 938.33
  L 564.26 938.33
  A 1.18 1.17 -79.6 0 1 563.16 936.74
  C 564.69 932.72 568.20 928.84 570.66 925.31
  Q 573.42 921.38 575.92 917.28
  A 0.28 0.27 15.5 0 0 575.68 916.86
  L 564.03 916.86
  A 0.73 0.72 -90.0 0 1 563.31 916.13
  L 563.31 914.79
  A 0.71 0.70 90.0 0 1 564.01 914.08
  L 579.75 914.08
  A 1.18 1.17 -79.6 0 1 580.85 915.68
  C 579.32 919.69 575.81 923.57 573.34 927.10
  Z"
/>
<path fill="#634930" d="
  M 622.12 932.74
  Q 617.66 932.73 617.02 932.73
  A 0.99 0.98 11.0 0 0 616.11 933.34
  L 614.31 937.66
  A 1.15 1.13 11.0 0 1 613.25 938.37
  L 611.16 938.36
  A 0.59 0.58 11.1 0 1 610.62 937.56
  L 620.17 914.63
  A 0.59 0.58 87.4 0 1 620.43 914.33
  Q 621.17 913.92 622.17 913.92
  Q 623.17 913.93 623.90 914.34
  A 0.59 0.58 -87.1 0 1 624.17 914.64
  L 633.59 937.62
  A 0.59 0.58 -10.8 0 1 633.04 938.42
  L 630.96 938.42
  A 1.15 1.13 -10.7 0 1 629.90 937.71
  L 628.12 933.37
  A 0.99 0.98 -10.7 0 0 627.21 932.76
  Q 626.58 932.76 622.12 932.74
  Z
  M 622.18 930.07
  Q 622.52 930.07 626.55 930.06
  A 0.25 0.25 0.0 0 0 626.78 929.73
  L 622.40 918.50
  A 0.15 0.14 0.3 0 0 622.35 918.45
  Q 622.16 918.37 622.19 918.37
  Q 622.13 918.37 621.95 918.46
  A 0.15 0.14 -0.6 0 0 621.90 918.50
  L 617.58 929.76
  A 0.25 0.25 0.0 0 0 617.81 930.09
  Q 621.84 930.07 622.18 930.07
  Z"
/>
<path fill="#634930" d="
  M 871.97 916.56
  L 860.03 916.56
  A 0.56 0.56 0.0 0 0 859.47 917.12
  L 859.47 924.18
  A 0.56 0.56 0.0 0 0 860.03 924.74
  L 871.58 924.74
  A 0.56 0.56 0.0 0 1 872.14 925.30
  L 872.14 926.84
  A 0.56 0.56 0.0 0 1 871.58 927.40
  L 860.10 927.40
  A 0.56 0.56 0.0 0 0 859.54 927.96
  L 859.54 937.76
  A 0.56 0.56 0.0 0 1 858.98 938.32
  L 857.16 938.32
  A 0.56 0.56 0.0 0 1 856.60 937.76
  L 856.60 914.69
  A 0.56 0.56 0.0 0 1 857.16 914.13
  L 871.97 914.13
  A 0.56 0.56 0.0 0 1 872.53 914.69
  L 872.53 916.00
  A 0.56 0.56 0.0 0 1 871.97 916.56
  Z"
/>
<path fill="#634930" d="
  M 911.48 932.75
  Q 907.00 932.75 906.37 932.75
  A 0.99 0.98 10.9 0 0 905.45 933.36
  L 903.65 937.70
  A 1.16 1.14 10.9 0 1 902.58 938.41
  L 900.49 938.41
  A 0.59 0.59 0.0 0 1 899.94 937.60
  L 909.50 914.58
  A 0.60 0.58 87.4 0 1 909.76 914.28
  Q 910.50 913.87 911.51 913.87
  Q 912.51 913.87 913.25 914.29
  A 0.60 0.58 -87.2 0 1 913.51 914.59
  L 923.00 937.63
  A 0.59 0.59 0.0 0 1 922.45 938.44
  L 920.35 938.44
  A 1.16 1.14 -10.8 0 1 919.29 937.73
  L 917.50 933.38
  A 0.99 0.98 -10.8 0 0 916.59 932.76
  Q 915.95 932.76 911.48 932.75
  Z
  M 911.57 930.16
  Q 911.92 930.15 916.10 930.12
  A 0.25 0.25 0.0 0 0 916.33 929.78
  L 911.72 918.18
  A 0.16 0.15 -0.1 0 0 911.67 918.13
  Q 911.47 918.05 911.41 918.05
  Q 911.44 918.05 911.25 918.14
  A 0.16 0.15 -1.0 0 0 911.20 918.18
  L 906.81 929.87
  A 0.25 0.25 0.0 0 0 907.05 930.21
  Q 911.22 930.16 911.57 930.16
  Z"
/>
<rect fill="#634930" x="1004.63" y="914.17" width="2.82" height="24.34" rx="0.74"/>
<path fill="#634930" d="
  M 1049.95 932.77
  Q 1045.50 932.76 1044.87 932.76
  A 0.99 0.98 11.0 0 0 1043.96 933.36
  L 1042.16 937.68
  A 1.15 1.13 11.0 0 1 1041.10 938.38
  L 1039.02 938.37
  A 0.59 0.58 11.1 0 1 1038.47 937.57
  L 1048.01 914.70
  A 0.59 0.58 87.5 0 1 1048.27 914.40
  Q 1049.01 913.99 1050.01 913.99
  Q 1051.01 914.00 1051.74 914.41
  A 0.59 0.58 -87.1 0 1 1052.00 914.71
  L 1061.40 937.64
  A 0.59 0.58 -10.8 0 1 1060.85 938.44
  L 1058.77 938.43
  A 1.15 1.13 -10.7 0 1 1057.71 937.73
  L 1055.94 933.40
  A 0.99 0.98 -10.7 0 0 1055.03 932.79
  Q 1054.40 932.78 1049.95 932.77
  Z
  M 1045.16 929.74
  A 0.30 0.30 0.0 0 0 1045.44 930.15
  L 1054.46 930.14
  A 0.30 0.30 0.0 0 0 1054.73 929.73
  L 1050.21 918.35
  A 0.30 0.30 0.0 0 0 1049.65 918.35
  L 1045.16 929.74
  Z"
/>
<path fill="#634930" d="
  M 1106.41 936.15
  L 1106.41 937.75
  A 0.60 0.60 0.0 0 1 1105.81 938.35
  L 1092.85 938.35
  A 0.60 0.60 0.0 0 1 1092.25 937.75
  L 1092.25 914.68
  A 0.60 0.60 0.0 0 1 1092.85 914.08
  L 1094.66 914.08
  A 0.60 0.60 0.0 0 1 1095.26 914.68
  L 1095.26 934.95
  A 0.60 0.60 0.0 0 0 1095.86 935.55
  L 1105.81 935.55
  A 0.60 0.60 0.0 0 1 1106.41 936.15
  Z"
/>
</svg>
