<?xml version="1.0" encoding="UTF-8" standalone="no"?>
<!DOCTYPE svg PUBLIC "-//W3C//DTD SVG 1.1//EN" "http://www.w3.org/Graphics/SVG/1.1/DTD/svg11.dtd">
<svg xmlns="http://www.w3.org/2000/svg" version="1.1" viewBox="110.00 485.00 1045.00 270.00">
<path fill="#C8A45D" d="
  M 224.76 632.14
  A 0.58 0.58 0.0 0 0 225.12 631.34
  C 221.10 622.72 218.07 613.05 214.20 604.36
  C 208.92 592.48 204.58 577.97 199.33 568.61
  C 193.88 558.90 184.77 556.38 174.15 556.36
  A 1.02 1.02 0.0 0 1 173.13 555.34
  L 173.13 555.01
  A 0.79 0.78 -0.0 0 1 173.92 554.23
  L 245.70 554.23
  A 0.76 0.75 0.0 0 1 246.46 554.98
  L 246.46 555.62
  A 0.73 0.73 0.0 0 1 245.69 556.35
  Q 233.21 555.71 224.35 557.75
  C 217.68 559.28 216.68 564.77 218.92 570.33
  Q 225.79 587.33 232.04 604.51
  Q 233.06 607.31 235.72 613.30
  C 237.44 617.16 238.52 621.28 240.14 625.21
  Q 246.69 641.05 254.00 660.10
  A 0.46 0.46 0.0 0 0 254.86 660.07
  Q 257.54 651.61 260.56 643.02
  Q 281.44 583.50 288.26 564.68
  C 290.25 559.20 291.47 553.52 290.29 548.78
  C 288.23 540.44 280.46 538.65 272.83 538.21
  A 1.09 1.08 -88.3 0 1 271.81 537.12
  L 271.81 536.81
  A 0.84 0.84 0.0 0 1 272.65 535.97
  L 322.96 535.97
  A 0.92 0.91 -90.0 0 1 323.87 536.89
  L 323.87 537.35
  A 0.93 0.92 -2.7 0 1 323.03 538.27
  Q 318.10 538.69 317.13 538.89
  C 303.24 541.77 297.59 552.19 292.47 564.21
  Q 290.72 568.32 281.13 595.84
  Q 259.78 657.15 249.03 688.58
  A 0.49 0.49 0.0 0 1 248.25 688.79
  Q 247.99 688.58 247.76 688.00
  C 241.74 673.18 239.90 668.03 233.78 653.51
  Q 230.80 646.43 226.91 635.57
  A 1.06 1.05 -18.4 0 0 225.60 634.92
  Q 198.39 643.35 170.20 637.51
  Q 161.78 635.76 150.80 630.71
  Q 140.80 626.11 133.71 619.37
  Q 121.20 607.47 115.92 591.69
  Q 105.33 559.99 120.48 531.10
  Q 133.17 506.91 158.49 496.77
  Q 170.72 491.87 182.75 491.32
  C 188.16 491.08 194.77 490.89 200.39 491.75
  Q 215.21 494.02 226.97 501.44
  C 230.91 503.92 234.04 504.94 237.50 502.13
  A 0.88 0.88 0.0 0 1 238.89 503.07
  L 230.95 528.74
  A 1.28 1.28 0.0 0 1 229.73 529.64
  L 229.68 529.64
  A 0.93 0.93 0.0 0 1 228.82 528.52
  Q 231.64 515.16 221.68 505.31
  Q 214.96 498.66 206.63 496.56
  C 180.66 490.01 155.12 499.33 140.30 521.84
  C 122.63 548.68 123.74 587.61 145.42 612.34
  C 150.19 617.78 158.26 624.62 165.41 627.90
  Q 180.89 635.00 195.23 635.56
  Q 210.44 636.16 224.76 632.14
  Z"
/>
<path fill="#C8A45D" d="
  M 581.87 539.26
  L 581.87 561.26
  A 0.35 0.35 0.0 0 1 581.52 561.61
  L 581.25 561.61
  A 0.43 0.43 0.0 0 1 580.82 561.16
  C 581.26 550.09 573.66 543.10 563.82 540.23
  Q 545.37 534.85 529.99 544.96
  C 517.76 553.00 511.68 567.87 510.78 582.67
  C 509.89 597.28 514.32 612.82 525.63 622.52
  Q 540.71 635.45 561.44 631.47
  C 566.78 630.45 576.37 627.11 578.53 622.27
  A 2.28 2.21 58.1 0 0 578.73 621.34
  Q 578.77 615.51 578.65 598.31
  C 578.61 592.30 571.22 592.73 566.87 592.54
  A 0.35 0.35 0.0 0 1 566.53 592.19
  L 566.53 591.91
  A 0.28 0.27 -0.0 0 1 566.81 591.64
  L 594.84 591.64
  A 0.32 0.32 0.0 0 1 595.16 591.96
  L 595.16 592.26
  A 0.25 0.25 0.0 0 1 594.92 592.51
  C 590.86 592.73 587.39 593.17 587.38 598.24
  Q 587.37 615.66 587.39 632.82
  A 0.52 0.52 0.0 0 1 586.82 633.34
  L 586.80 633.34
  A 0.62 0.62 0.0 0 1 586.23 632.72
  Q 586.21 629.92 585.98 628.14
  A 2.99 2.65 87.2 0 0 583.45 625.55
  Q 582.04 625.47 580.21 626.48
  Q 558.52 638.38 534.00 632.01
  Q 531.49 631.36 526.07 628.72
  C 494.54 613.41 493.10 569.41 518.35 547.95
  C 531.09 537.13 549.67 534.17 565.84 538.21
  Q 569.82 539.21 576.86 541.41
  Q 579.68 542.29 581.42 539.15
  A 0.24 0.24 0.0 0 1 581.87 539.26
  Z"
/>
<path fill="#C8A45D" d="
  M 930.79 620.56
  A 0.25 0.24 43.4 0 0 931.25 620.55
  Q 942.79 586.43 954.98 548.48
  Q 956.05 545.14 956.21 543.27
  C 956.57 538.84 953.21 538.38 949.88 538.03
  A 0.43 0.43 0.0 0 1 949.50 537.53
  L 949.57 537.13
  A 0.14 0.14 0.0 0 1 949.71 537.01
  L 967.16 537.01
  A 0.19 0.18 90.0 0 1 967.34 537.20
  L 967.34 537.50
  A 0.54 0.53 -89.0 0 1 966.79 538.04
  Q 960.50 537.87 958.44 544.22
  Q 943.37 590.63 928.87 633.39
  A 0.70 0.69 -46.7 0 1 927.57 633.43
  Q 913.37 598.83 891.91 545.85
  Q 890.12 541.43 889.46 540.64
  C 886.70 537.36 881.50 538.78 878.08 540.60
  C 867.68 546.14 864.08 557.26 860.26 568.76
  Q 851.89 593.93 843.80 615.56
  C 838.81 628.90 835.42 638.87 828.11 648.92
  C 821.31 658.24 810.75 664.37 800.06 666.93
  C 786.53 670.16 771.84 669.48 758.08 667.12
  Q 750.43 665.81 736.90 661.81
  Q 725.78 658.52 706.75 650.67
  Q 693.46 645.18 689.13 643.50
  C 675.60 638.26 663.80 633.56 652.60 633.39
  Q 643.49 633.24 634.46 633.27
  A 0.59 0.59 0.0 0 1 633.96 632.36
  L 669.10 578.14
  A 0.59 0.59 0.0 0 0 668.62 577.23
  Q 660.09 577.05 650.00 577.16
  C 643.51 577.23 639.54 580.53 637.28 586.26
  Q 636.85 587.35 635.96 588.84
  A 0.30 0.30 0.0 0 1 635.40 588.63
  L 637.67 575.94
  A 0.34 0.33 -84.9 0 1 638.00 575.66
  L 679.86 575.66
  A 0.65 0.64 -73.8 0 1 680.40 576.65
  Q 675.48 584.38 671.91 589.42
  C 667.57 595.53 664.48 601.25 659.92 608.18
  Q 652.73 619.11 645.51 631.06
  A 0.51 0.51 0.0 0 0 645.97 631.84
  Q 654.28 631.42 662.35 632.97
  Q 673.62 635.14 689.74 640.03
  Q 712.89 647.06 727.64 651.71
  Q 732.85 653.35 738.68 654.86
  C 743.83 656.19 748.38 657.83 753.48 658.86
  C 771.38 662.50 788.97 666.21 806.93 661.40
  C 819.22 658.12 828.59 647.54 833.55 636.04
  A 2.27 2.25 -43.9 0 0 833.59 634.33
  Q 828.94 621.97 825.22 613.45
  C 819.16 599.60 816.83 592.77 810.72 579.55
  Q 809.38 576.65 805.41 576.65
  A 0.42 0.41 0.7 0 1 804.99 576.23
  L 804.99 576.21
  A 0.44 0.44 0.0 0 1 805.42 575.76
  L 825.86 575.63
  A 0.26 0.26 0.0 0 1 826.12 575.89
  L 826.12 576.18
  A 0.28 0.28 0.0 0 1 825.86 576.46
  C 823.03 576.66 819.67 577.35 820.64 580.87
  C 821.75 584.93 824.07 589.51 825.32 592.63
  Q 835.80 618.70 837.99 623.95
  A 0.51 0.51 0.0 0 0 838.93 623.94
  Q 843.06 613.53 847.10 601.87
  Q 853.42 583.60 862.16 558.65
  C 865.22 549.90 871.17 541.25 880.11 537.97
  Q 882.77 536.99 890.49 536.97
  Q 898.23 536.95 904.51 536.97
  A 0.49 0.49 0.0 0 1 905.00 537.48
  L 905.00 537.51
  A 0.49 0.48 -87.6 0 1 904.50 537.98
  C 899.93 537.80 898.78 539.99 900.13 544.12
  C 902.64 551.78 906.80 559.94 909.71 568.09
  C 913.35 578.29 919.39 591.81 923.70 603.18
  Q 925.75 608.60 930.79 620.56
  Z"
/>
<path fill="#C8A45D" d="
  M 771.54 632.63
  A 0.32 0.31 55.5 0 1 771.43 633.24
  L 750.75 633.22
  A 0.43 0.43 0.0 0 1 750.32 632.79
  L 750.32 632.50
  A 0.41 0.40 0.8 0 1 750.75 632.10
  Q 756.72 632.31 756.77 626.94
  Q 756.91 607.17 756.80 551.82
  C 756.80 547.67 755.77 545.67 751.48 545.79
  A 0.52 0.52 0.0 0 1 750.94 545.25
  L 750.94 545.23
  A 0.46 0.46 0.0 0 1 751.34 544.79
  Q 758.26 544.01 764.62 540.65
  A 0.51 0.50 76.0 0 1 765.36 541.11
  Q 765.34 602.04 765.30 624.14
  C 765.29 628.04 765.17 631.57 769.32 632.13
  Q 770.74 632.32 771.54 632.63
  Z"
/>
<path fill="#C8A45D" d="
  M 801.90 632.62
  A 0.32 0.31 55.4 0 1 801.79 633.23
  L 781.13 633.23
  A 0.43 0.43 0.0 0 1 780.70 632.80
  L 780.70 632.51
  A 0.41 0.40 0.7 0 1 781.12 632.11
  Q 787.09 632.31 787.13 626.95
  Q 787.25 607.20 787.08 551.89
  C 787.07 547.75 786.04 545.75 781.76 545.88
  A 0.52 0.52 0.0 0 1 781.22 545.34
  L 781.22 545.32
  A 0.46 0.45 -3.0 0 1 781.62 544.88
  Q 788.53 544.09 794.88 540.73
  A 0.51 0.50 76.0 0 1 795.62 541.18
  Q 795.67 602.06 795.65 624.14
  C 795.65 628.04 795.53 631.57 799.68 632.12
  Q 801.10 632.31 801.90 632.62
  Z"
/>
<circle fill="#C8A45D" cx="613.91" cy="560.00" r="4.55"/>
<circle fill="#C8A45D" cx="967.11" cy="560.19" r="4.60"/>
<path fill="#C8A45D" d="
  M 292.19 579.61
  A 0.35 0.35 0.0 0 1 291.83 579.02
  C 312.43 562.97 339.90 569.86 344.64 597.17
  C 347.50 613.68 341.49 630.75 331.41 643.71
  Q 324.38 652.74 318.25 657.99
  Q 315.65 660.22 304.91 668.06
  Q 298.48 672.76 290.86 677.07
  Q 289.79 677.67 275.67 686.43
  Q 263.86 693.75 254.71 701.98
  C 245.34 710.40 238.07 720.27 232.65 731.04
  A 0.41 0.41 0.0 0 1 231.92 731.05
  C 228.79 725.16 224.77 718.70 220.04 713.61
  Q 209.29 702.03 197.79 694.46
  Q 185.52 686.40 165.48 673.78
  Q 164.54 673.18 155.97 666.56
  Q 140.51 654.62 135.96 633.62
  A 1.85 1.84 -29.3 0 1 136.43 631.95
  L 136.46 631.92
  A 0.63 0.63 0.0 0 1 137.51 632.15
  Q 142.15 645.34 152.55 655.11
  C 157.36 659.63 161.15 663.02 166.75 666.80
  Q 178.32 674.60 197.50 685.75
  Q 201.11 687.85 211.92 695.84
  Q 225.68 706.02 233.97 721.04
  A 0.28 0.28 0.0 0 0 234.47 721.03
  Q 239.59 711.26 247.27 702.45
  C 250.61 698.63 254.93 695.24 259.17 691.30
  C 263.01 687.73 266.03 685.98 272.41 681.41
  Q 275.62 679.11 280.76 675.86
  Q 290.09 669.94 302.90 660.65
  C 307.74 657.15 310.34 654.20 315.94 648.59
  Q 320.99 643.52 323.12 640.50
  C 332.95 626.52 340.16 607.83 332.80 591.08
  C 325.20 573.78 307.58 572.53 292.19 579.61
  Z"
/>
<path fill="#C8A45D" d="
  M 741.20 616.79
  L 741.57 616.90
  A 0.38 0.38 0.0 0 1 741.81 617.40
  Q 735.54 633.09 719.23 634.10
  C 702.14 635.17 689.44 623.61 688.91 606.27
  Q 688.35 587.78 702.63 578.41
  Q 709.56 573.86 719.50 574.56
  C 731.06 575.37 739.45 582.19 741.44 593.61
  A 0.61 0.61 0.0 0 1 740.84 594.33
  L 699.10 594.33
  A 0.80 0.78 5.2 0 0 698.32 594.97
  C 696.50 604.94 698.14 615.84 705.05 623.76
  C 708.31 627.49 714.41 630.02 719.51 629.93
  C 729.44 629.77 736.18 625.66 740.69 617.00
  A 0.43 0.43 0.0 0 1 741.20 616.79
  Z
  M 699.49 592.64
  L 731.79 592.64
  A 0.66 0.65 86.9 0 0 732.44 591.91
  C 731.58 584.48 728.19 577.86 720.18 576.18
  C 709.48 573.93 701.10 582.26 698.93 591.94
  A 0.57 0.57 0.0 0 0 699.49 592.64
  Z"
/>
<path fill="#C8A45D" d="
  M 424.31 595.67
  C 424.34 605.13 419.59 612.52 411.20 615.71
  Q 407.73 617.03 399.63 616.91
  Q 390.81 616.79 387.88 616.89
  A 0.29 0.29 0.0 0 1 387.79 616.33
  Q 390.48 615.57 390.35 612.74
  Q 390.07 606.71 390.02 595.79
  Q 389.98 584.88 390.22 578.84
  Q 390.33 576.01 387.64 575.27
  A 0.29 0.29 0.0 0 1 387.72 574.71
  Q 390.65 574.79 399.47 574.61
  Q 407.57 574.43 411.05 575.72
  C 419.47 578.85 424.27 586.20 424.31 595.67
  Z
  M 394.90 576.26
  L 394.96 615.18
  A 0.75 0.75 0.0 0 0 395.72 615.93
  L 402.54 615.92
  A 18.08 16.53 89.9 0 0 419.03 597.81
  L 419.03 593.55
  A 18.08 16.53 89.9 0 0 402.46 575.50
  L 395.64 575.51
  A 0.75 0.75 0.0 0 0 394.90 576.26
  Z"
/>
<path fill="#C8A45D" d="
  M 604.67 579.63
  A 0.51 0.50 0.0 0 1 604.16 579.13
  L 604.16 578.87
  A 0.07 0.07 0.0 0 1 604.23 578.80
  Q 611.38 578.15 617.73 575.11
  A 0.38 0.37 76.9 0 1 618.27 575.45
  Q 618.28 607.89 618.31 626.06
  Q 618.31 628.90 618.87 629.86
  C 620.25 632.23 622.09 631.85 624.21 632.58
  A 0.34 0.34 0.0 0 1 624.10 633.24
  L 604.48 633.24
  A 0.49 0.48 0.0 0 1 603.99 632.76
  L 603.99 632.49
  A 0.25 0.24 -0.0 0 1 604.24 632.25
  C 610.50 632.18 610.01 628.53 610.03 623.11
  Q 610.09 606.18 610.00 589.64
  C 609.97 584.31 610.92 579.62 604.67 579.63
  Z"
/>
<path fill="#C8A45D" d="
  M 958.15 580.25
  A 0.50 0.49 0.0 0 1 957.65 579.75
  L 957.65 579.50
  A 0.07 0.07 0.0 0 1 957.72 579.43
  Q 964.77 578.79 971.04 575.79
  A 0.37 0.37 0.0 0 1 971.57 576.12
  Q 971.58 608.13 971.61 626.05
  Q 971.61 628.85 972.16 629.80
  C 973.52 632.14 975.34 631.76 977.43 632.48
  A 0.33 0.33 0.0 0 1 977.32 633.13
  L 957.96 633.13
  A 0.48 0.47 0.0 0 1 957.48 632.66
  L 957.48 632.39
  A 0.25 0.24 0.0 0 1 957.73 632.15
  C 963.90 632.09 963.42 628.49 963.44 623.14
  Q 963.50 606.44 963.41 590.12
  C 963.38 584.86 964.32 580.24 958.15 580.25
  Z"
/>
<path fill="#C8A45D" d="
  M 1019.52 622.63
  A 0.37 0.37 0.0 0 0 1018.85 622.49
  Q 1014.58 629.52 1007.15 632.34
  C 995.41 636.80 983.06 630.68 985.48 616.67
  C 986.52 610.63 991.94 606.13 997.76 604.46
  Q 1008.36 601.42 1018.87 597.88
  A 0.85 0.84 -8.5 0 0 1019.44 597.11
  Q 1019.59 593.32 1019.45 590.17
  C 1019.06 580.61 1012.36 577.14 1003.67 578.80
  Q 994.37 580.58 991.51 591.37
  A 0.48 0.48 0.0 0 1 990.56 591.25
  L 990.57 585.26
  A 2.84 2.79 64.9 0 1 991.19 583.49
  Q 992.56 581.77 995.07 580.30
  C 1004.48 574.75 1020.01 574.43 1025.49 585.33
  Q 1027.41 589.17 1027.36 600.82
  Q 1027.28 618.84 1027.17 624.30
  Q 1027.15 625.55 1027.46 627.52
  C 1027.78 629.52 1029.88 631.22 1031.89 630.45
  C 1033.24 629.94 1034.12 628.60 1035.08 627.84
  A 0.42 0.41 -2.7 0 1 1035.69 628.39
  Q 1032.72 632.93 1027.98 633.61
  C 1022.54 634.39 1019.29 630.48 1019.53 625.29
  Q 1019.63 623.37 1019.52 622.63
  Z
  M 1018.82 599.45
  C 1007.73 602.71 993.19 606.05 993.16 618.91
  C 993.15 624.51 996.23 629.13 1001.82 630.25
  C 1008.99 631.69 1015.91 625.76 1019.13 619.57
  A 3.37 3.34 -31.5 0 0 1019.51 618.02
  L 1019.51 599.96
  A 0.53 0.53 0.0 0 0 1018.82 599.45
  Z"
/>
<path fill="#C8A45D" d="
  M 1053.53 586.18
  A 0.18 0.18 0.0 0 0 1053.85 586.28
  Q 1062.82 573.88 1078.23 577.30
  C 1087.70 579.40 1089.98 587.88 1089.94 596.53
  Q 1089.84 616.60 1090.15 627.32
  Q 1090.30 632.32 1095.56 632.25
  A 0.49 0.48 0.0 0 1 1096.05 632.73
  L 1096.05 632.99
  A 0.29 0.29 0.0 0 1 1095.76 633.28
  L 1076.96 633.28
  A 0.47 0.47 0.0 0 1 1076.85 632.35
  C 1079.88 631.66 1081.83 631.14 1081.86 627.25
  Q 1082.05 600.26 1081.83 591.71
  C 1081.61 583.28 1076.00 577.02 1066.96 579.00
  Q 1059.71 580.59 1055.27 587.02
  Q 1053.53 589.54 1053.50 591.99
  Q 1053.28 609.46 1053.55 626.32
  C 1053.61 630.48 1054.82 632.34 1058.92 632.38
  A 0.16 0.15 82.8 0 1 1059.07 632.50
  L 1059.16 632.83
  A 0.30 0.29 -7.4 0 1 1058.87 633.20
  L 1039.97 633.20
  A 0.32 0.32 0.0 0 1 1039.65 632.88
  L 1039.65 632.54
  A 0.39 0.39 0.0 0 1 1040.05 632.15
  Q 1045.50 632.35 1045.58 627.26
  Q 1045.89 608.87 1045.61 586.01
  Q 1045.54 580.46 1040.77 580.87
  A 0.35 0.35 0.0 0 1 1040.49 580.78
  Q 1040.25 580.56 1040.42 580.23
  A 0.42 0.41 -84.2 0 1 1040.66 580.03
  L 1053.02 576.74
  A 0.41 0.40 -7.2 0 1 1053.53 577.13
  L 1053.53 586.18
  Z"
/>
<path fill="#C8A45D" d="
  M 1135.03 622.59
  A 0.37 0.37 0.0 0 0 1134.35 622.45
  Q 1130.09 629.49 1122.65 632.32
  C 1110.91 636.80 1098.54 630.69 1100.94 616.66
  C 1101.98 610.61 1107.40 606.10 1113.22 604.42
  Q 1123.83 601.37 1134.35 597.81
  A 0.85 0.84 -8.6 0 0 1134.92 597.04
  Q 1135.06 593.25 1134.92 590.09
  C 1134.52 580.52 1127.81 577.06 1119.11 578.73
  Q 1109.80 580.52 1106.95 591.33
  A 0.48 0.48 0.0 0 1 1106.00 591.21
  L 1106.00 585.21
  A 2.85 2.79 64.8 0 1 1106.62 583.44
  Q 1107.99 581.72 1110.50 580.24
  C 1119.91 574.68 1135.46 574.34 1140.96 585.24
  Q 1142.89 589.08 1142.85 600.75
  Q 1142.79 618.79 1142.69 624.25
  Q 1142.67 625.50 1142.98 627.47
  C 1143.30 629.48 1145.41 631.18 1147.42 630.40
  C 1148.77 629.89 1149.65 628.55 1150.61 627.79
  A 0.42 0.41 -2.8 0 1 1151.22 628.34
  Q 1148.25 632.88 1143.51 633.57
  C 1138.06 634.36 1134.80 630.45 1135.04 625.25
  Q 1135.14 623.33 1135.03 622.59
  Z
  M 1134.24 599.51
  C 1123.12 602.69 1108.55 605.92 1108.43 618.78
  C 1108.38 624.39 1111.42 629.03 1117.00 630.19
  C 1124.17 631.68 1131.13 625.81 1134.40 619.64
  A 3.37 3.34 -31.0 0 0 1134.79 618.09
  L 1134.92 600.03
  A 0.53 0.53 0.0 0 0 1134.24 599.51
  Z"
/>
<path fill="#C8A45D" d="
  M 468.49 598.30
  C 469.00 594.01 468.79 589.24 463.50 588.53
  Q 455.84 587.50 453.61 594.81
  A 0.49 0.48 48.0 0 1 452.67 594.76
  C 452.18 592.21 453.64 589.90 456.07 588.81
  Q 461.49 586.38 467.00 587.98
  C 472.30 589.53 473.37 593.41 473.22 598.76
  Q 472.99 606.69 473.36 614.10
  A 1.55 1.55 0.0 0 0 475.43 615.48
  Q 476.00 615.28 476.83 614.30
  A 0.34 0.34 0.0 0 1 477.33 614.28
  L 477.52 614.47
  A 0.13 0.12 -51.2 0 1 477.53 614.63
  C 474.79 618.46 468.31 618.28 468.81 612.45
  A 0.43 0.43 0.0 0 0 468.02 612.18
  Q 464.45 617.67 457.47 617.24
  C 452.96 616.96 449.98 614.57 449.96 609.99
  C 449.94 604.67 453.77 602.50 458.51 601.24
  Q 460.29 600.76 467.81 599.05
  A 0.87 0.87 0.0 0 0 468.49 598.30
  Z
  M 468.04 599.82
  C 461.29 601.99 452.91 603.60 454.84 611.15
  C 455.86 615.15 459.77 616.25 463.31 615.00
  Q 466.12 614.02 468.50 610.31
  A 1.03 1.01 61.8 0 0 468.66 609.76
  L 468.80 600.39
  A 0.58 0.58 0.0 0 0 468.04 599.82
  Z"
/>
<path fill="#C8A45D" d="
  M 437.99 616.48
  A 0.38 0.38 0.0 0 1 438.35 616.87
  L 438.34 616.90
  A 0.24 0.24 0.0 0 1 438.10 617.12
  L 427.90 617.00
  A 0.31 0.31 0.0 0 1 427.82 616.39
  Q 429.37 615.99 430.13 615.09
  A 1.62 1.58 -25.4 0 0 430.51 614.06
  Q 430.67 598.98 430.52 593.93
  C 430.45 591.80 430.92 590.03 428.09 589.76
  A 0.38 0.38 0.0 0 1 428.07 589.01
  L 434.73 588.03
  A 0.54 0.53 -89.1 0 1 435.33 588.66
  L 434.70 592.19
  A 0.39 0.39 0.0 0 0 435.35 592.54
  C 436.15 591.78 436.96 590.42 437.63 589.83
  Q 440.87 586.96 445.69 587.62
  C 448.09 587.94 450.46 590.07 448.32 592.58
  A 1.91 1.91 0.0 0 1 445.52 592.69
  L 443.71 590.87
  A 2.00 1.98 71.8 0 0 442.61 590.31
  Q 440.32 589.93 439.73 590.20
  Q 436.58 591.64 435.14 595.01
  A 2.54 2.52 -32.9 0 0 434.93 595.97
  Q 434.51 612.25 434.83 613.99
  Q 435.26 616.34 437.99 616.48
  Z"
/>
<circle fill="#C8A45D" cx="483.74" cy="614.59" r="2.59"/>
<path fill="#C8A45D" d="
  M 822.13 685.03
  A 0.62 0.61 -16.0 0 1 823.20 685.62
  Q 822.01 688.54 819.37 687.19
  Q 818.61 686.79 818.09 686.28
  A 0.51 0.51 0.0 0 0 817.32 686.32
  Q 816.76 687.03 816.73 687.16
  A 0.67 0.63 53.2 0 1 815.47 686.94
  Q 815.42 685.36 817.31 684.50
  A 0.86 0.86 0.0 0 1 818.14 684.56
  L 819.96 685.72
  A 1.44 1.42 -38.0 0 0 821.20 685.86
  Q 821.63 685.71 822.13 685.03
  Z"
/>
<path fill="#C8A45D" d="
  M 784.98 708.50
  Q 785.22 708.36 785.29 708.36
  A 1.10 0.98 -71.6 0 1 786.02 710.06
  Q 784.30 712.58 781.21 711.16
  A 0.46 0.45 18.0 0 1 780.95 710.66
  L 781.01 710.32
  A 0.46 0.46 0.0 0 1 781.54 709.95
  L 783.35 710.28
  A 0.73 0.73 0.0 0 0 784.19 709.69
  L 784.24 709.44
  A 0.50 0.49 -81.8 0 0 783.81 708.86
  Q 782.93 708.74 782.54 707.97
  A 2.32 2.31 -3.6 0 0 781.23 706.82
  Q 773.98 704.20 774.82 696.48
  C 775.58 689.51 784.30 686.56 789.52 691.31
  A 1.10 1.10 0.0 0 1 789.67 692.78
  L 789.64 692.82
  A 0.98 0.97 37.7 0 1 788.24 692.99
  C 784.68 690.09 779.76 690.49 777.83 694.84
  C 774.76 701.72 782.03 708.43 788.10 703.19
  A 1.21 1.20 -47.8 0 1 789.57 703.11
  L 789.61 703.13
  A 0.89 0.89 0.0 0 1 789.79 704.42
  Q 787.88 706.78 784.71 706.95
  A 0.65 0.64 -4.3 0 0 784.10 707.65
  Q 784.13 708.12 784.43 708.42
  A 0.45 0.44 -36.3 0 0 784.98 708.50
  Z"
/>
<path fill="#C8A45D" d="
  M 494.96 689.16
  C 495.79 689.17 496.47 689.49 496.75 690.27
  Q 498.13 694.13 502.89 705.96
  A 0.77 0.77 0.0 0 1 502.04 707.01
  L 501.57 706.93
  A 1.40 1.39 -5.9 0 1 500.54 706.10
  L 499.47 703.50
  A 1.01 1.00 -12.6 0 0 498.50 702.89
  Q 498.11 702.87 494.93 702.86
  Q 491.74 702.86 491.35 702.88
  A 1.01 1.00 12.8 0 0 490.38 703.49
  L 489.30 706.08
  A 1.40 1.39 6.1 0 1 488.27 706.91
  L 487.80 706.99
  A 0.77 0.77 0.0 0 1 486.95 705.94
  Q 491.75 694.12 493.15 690.27
  C 493.43 689.49 494.11 689.16 494.96 689.16
  Z
  M 491.62 700.24
  A 0.39 0.39 0.0 0 0 491.99 700.77
  L 498.03 700.75
  A 0.39 0.39 0.0 0 0 498.40 700.22
  L 495.35 692.30
  A 0.39 0.39 0.0 0 0 494.62 692.30
  L 491.62 700.24
  Z"
/>
<path fill="#C8A45D" d="
  M 611.9244 689.1843
  A 9.15 8.78 -74.7 0 1 617.9788 700.3268
  A 9.15 8.78 -74.7 0 1 607.0956 706.8357
  A 9.15 8.78 -74.7 0 1 601.0412 695.6932
  A 9.15 8.78 -74.7 0 1 611.9244 689.1843
  Z
  M 609.0694 691.0215
  A 6.96 6.32 -93.3 0 0 603.1605 698.3338
  A 6.96 6.32 -93.3 0 0 609.8706 704.9185
  A 6.96 6.32 -93.3 0 0 615.7795 697.6062
  A 6.96 6.32 -93.3 0 0 609.0694 691.0215
  Z"
/>
<path fill="#C8A45D" d="
  M 643.87 693.60
  A 0.27 0.27 0.0 0 0 643.38 693.75
  L 643.38 705.89
  A 1.12 1.12 0.0 0 1 642.26 707.01
  L 641.99 707.01
  A 0.83 0.82 90.0 0 1 641.17 706.18
  L 641.17 689.86
  A 0.69 0.68 -5.1 0 1 641.74 689.19
  Q 643.18 688.93 644.09 690.20
  Q 648.31 696.12 652.37 701.80
  A 0.40 0.39 27.6 0 0 653.09 701.58
  L 653.09 690.03
  A 1.12 1.12 0.0 0 1 654.21 688.91
  L 654.54 688.91
  A 0.86 0.86 0.0 0 1 655.40 689.77
  L 655.40 706.17
  A 0.93 0.92 8.9 0 1 654.19 707.05
  C 651.75 706.27 647.48 698.86 643.87 693.60
  Z"
/>
<rect fill="#C8A45D" x="-0.96" y="-9.00" transform="translate(679.92,698.09) rotate(-0.1)" width="1.92" height="18.00" rx="0.93"/>
<path fill="#C8A45D" d="
  M 745.91 702.88
  Q 742.72 702.87 742.33 702.89
  A 1.01 1.00 12.9 0 0 741.36 703.50
  L 740.27 706.09
  A 1.41 1.39 6.3 0 1 739.23 706.92
  L 738.76 707.00
  A 0.78 0.77 -83.8 0 1 737.91 705.94
  Q 742.75 694.12 744.16 690.26
  C 744.45 689.48 745.13 689.16 745.96 689.16
  C 746.81 689.16 747.49 689.49 747.77 690.28
  Q 749.14 694.14 753.88 706.01
  A 0.78 0.77 84.3 0 1 753.03 707.06
  L 752.55 706.98
  A 1.41 1.39 -5.8 0 1 751.53 706.14
  L 750.46 703.53
  A 1.01 1.00 -12.4 0 0 749.49 702.92
  Q 749.10 702.90 745.91 702.88
  Z
  M 742.75 700.10
  A 0.43 0.43 0.0 0 0 743.15 700.68
  L 748.68 700.70
  A 0.43 0.43 0.0 0 0 749.09 700.12
  L 746.35 692.56
  A 0.43 0.43 0.0 0 0 745.54 692.56
  L 742.75 700.10
  Z"
/>
<path fill="#C8A45D" d="
  M 858.3945 689.0642
  A 9.07 8.62 -80.9 0 1 865.4715 699.3833
  A 9.07 8.62 -80.9 0 1 855.5255 706.9758
  A 9.07 8.62 -80.9 0 1 848.4485 696.6567
  A 9.07 8.62 -80.9 0 1 858.3945 689.0642
  Z
  M 856.8634 691.0001
  A 6.99 6.26 -90.3 0 0 850.6401 698.0228
  A 6.99 6.26 -90.3 0 0 856.9366 704.9799
  A 6.99 6.26 -90.3 0 0 863.1599 697.9572
  A 6.99 6.26 -90.3 0 0 856.8634 691.0001
  Z"
/>
<path fill="#C8A45D" d="
  M 985.96 698.08
  C 986.01 704.28 992.24 707.37 996.95 703.04
  A 0.99 0.99 0.0 0 1 998.35 703.10
  L 998.38 703.13
  A 1.02 1.02 0.0 0 1 998.35 704.55
  C 992.80 710.11 983.61 705.84 983.55 698.10
  C 983.49 690.36 992.62 685.95 998.25 691.43
  A 1.02 1.02 0.0 0 1 998.30 692.84
  L 998.27 692.87
  A 0.99 0.99 0.0 0 1 996.87 692.95
  C 992.10 688.69 985.91 691.88 985.96 698.08
  Z"
/>
<rect fill="#C8A45D" x="-1.00" y="-8.94" transform="translate(1022.65,697.95) rotate(-0.1)" width="2.00" height="17.88" rx="0.86"/>
<path fill="#C8A45D" d="
  M 457.71 696.63
  Q 461.36 696.63 461.96 696.57
  A 0.77 0.77 0.0 0 0 462.66 695.80
  L 462.66 690.17
  A 0.99 0.99 0.0 0 1 463.65 689.18
  L 464.05 689.18
  A 0.79 0.79 0.0 0 1 464.84 689.97
  L 464.84 706.15
  A 0.85 0.84 90.0 0 1 464.00 707.00
  L 463.59 707.00
  A 0.98 0.97 90.0 0 1 462.62 706.02
  L 462.62 699.42
  A 0.68 0.68 0.0 0 0 461.93 698.74
  Q 459.39 698.81 457.71 698.80
  Q 456.03 698.80 453.49 698.74
  A 0.68 0.68 0.0 0 0 452.80 699.41
  L 452.79 706.01
  A 0.98 0.97 -89.9 0 1 451.82 706.99
  L 451.41 706.99
  A 0.85 0.84 -89.9 0 1 450.57 706.14
  L 450.59 689.96
  A 0.79 0.79 0.0 0 1 451.38 689.17
  L 451.78 689.17
  A 0.99 0.99 0.0 0 1 452.77 690.16
  L 452.76 695.79
  A 0.77 0.77 0.0 0 0 453.46 696.56
  Q 454.06 696.62 457.71 696.63
  Z"
/>
<path fill="#C8A45D" d="
  M 534.07 699.59
  A 0.43 0.43 0.0 0 0 533.86 700.21
  L 537.25 706.08
  A 0.67 0.67 0.0 0 1 536.67 707.09
  L 536.28 707.09
  A 2.12 2.11 -15.0 0 1 534.45 706.04
  L 531.09 700.21
  A 0.83 0.82 -8.3 0 0 530.55 699.81
  Q 529.28 699.51 528.04 699.57
  A 0.69 0.69 0.0 0 0 527.39 700.26
  L 527.39 706.00
  A 0.93 0.93 0.0 0 1 526.46 706.93
  L 526.20 706.93
  A 0.95 0.94 -90.0 0 1 525.26 705.98
  L 525.26 689.76
  A 0.57 0.57 0.0 0 1 525.82 689.19
  C 530.53 689.13 537.06 688.10 537.54 694.41
  Q 537.81 697.98 534.07 699.59
  Z
  M 527.44 691.76
  L 527.40 697.18
  A 0.49 0.49 0.0 0 0 527.89 697.68
  L 531.74 697.70
  A 3.54 3.10 0.4 0 0 535.30 694.63
  L 535.30 694.43
  A 3.54 3.10 0.4 0 0 531.78 691.30
  L 527.93 691.28
  A 0.49 0.49 0.0 0 0 527.44 691.76
  Z"
/>
<path fill="#C8A45D" d="
  M 569.34 702.10
  Q 569.58 702.10 569.66 701.87
  Q 572.14 695.47 574.54 689.96
  A 1.75 1.75 0.0 0 1 577.90 690.66
  L 577.90 706.14
  A 0.88 0.88 0.0 0 1 577.02 707.02
  L 576.75 707.02
  A 1.09 1.08 -0.0 0 1 575.66 705.94
  L 575.66 693.64
  A 0.22 0.22 0.0 0 0 575.24 693.55
  Q 573.73 697.19 570.30 705.79
  Q 569.90 706.81 569.35 706.81
  Q 568.80 706.81 568.39 705.80
  Q 564.94 697.20 563.42 693.57
  A 0.22 0.22 0.0 0 0 563.01 693.66
  L 563.04 705.96
  A 1.09 1.08 -0.2 0 1 561.95 707.04
  L 561.68 707.04
  A 0.88 0.88 0.0 0 1 560.80 706.16
  L 560.76 690.68
  A 1.75 1.75 0.0 0 1 564.12 689.97
  Q 566.53 695.48 569.02 701.87
  Q 569.11 702.10 569.34 702.10
  Z"
/>
<path fill="#C8A45D" d="
  M 711.31 698.57
  Q 708.35 702.69 707.45 703.91
  A 0.49 0.48 18.0 0 0 707.85 704.68
  L 715.66 704.68
  A 0.97 0.97 0.0 0 1 716.63 705.65
  L 716.63 706.01
  A 0.65 0.64 90.0 0 1 715.99 706.66
  L 704.76 706.66
  A 0.93 0.93 0.0 0 1 703.97 705.24
  Q 705.67 702.47 709.36 697.33
  Q 712.32 693.22 713.21 691.99
  A 0.49 0.48 18.0 0 0 712.81 691.22
  L 705.00 691.22
  A 0.97 0.97 0.0 0 1 704.03 690.25
  L 704.03 689.89
  A 0.65 0.64 -90.0 0 1 704.67 689.24
  L 715.90 689.24
  A 0.93 0.93 0.0 0 1 716.70 690.66
  Q 714.99 693.44 711.31 698.57
  Z"
/>
<path fill="#C8A45D" d="
  M 819.25 702.84
  Q 816.08 702.84 815.70 702.86
  A 1.00 0.99 12.7 0 0 814.73 703.47
  L 813.66 706.05
  A 1.40 1.39 6.0 0 1 812.64 706.88
  L 812.17 706.96
  A 0.77 0.77 0.0 0 1 811.32 705.91
  Q 816.08 694.15 817.46 690.32
  C 817.74 689.54 818.42 689.22 819.24 689.22
  C 820.09 689.22 820.77 689.54 821.05 690.32
  Q 822.43 694.15 827.18 705.91
  A 0.77 0.77 0.0 0 1 826.33 706.96
  L 825.87 706.88
  A 1.40 1.39 -6.0 0 1 824.84 706.06
  L 823.77 703.47
  A 1.00 0.99 -12.7 0 0 822.81 702.87
  Q 822.42 702.84 819.25 702.84
  Z
  M 819.24 700.78
  Q 822.05 700.77 822.35 700.76
  A 0.24 0.24 0.0 0 0 822.57 700.43
  L 819.44 692.23
  A 0.27 0.18 9.6 0 0 819.31 692.10
  Q 819.24 692.07 819.21 692.07
  Q 819.14 692.07 819.07 692.10
  A 0.27 0.18 -10.2 0 0 818.94 692.23
  L 815.91 700.47
  A 0.24 0.24 0.0 0 0 816.13 700.80
  Q 816.43 700.80 819.24 700.78
  Z"
/>
<path fill="#C8A45D" d="
  M 926.18 689.69
  L 926.18 690.79
  A 0.40 0.40 0.0 0 1 925.78 691.19
  L 917.57 691.19
  A 0.40 0.40 0.0 0 0 917.17 691.59
  L 917.17 696.33
  A 0.40 0.40 0.0 0 0 917.57 696.73
  L 925.78 696.73
  A 0.40 0.40 0.0 0 1 926.18 697.13
  L 926.18 698.27
  A 0.40 0.40 0.0 0 1 925.78 698.67
  L 917.48 698.67
  A 0.40 0.40 0.0 0 0 917.08 699.07
  L 917.08 706.54
  A 0.40 0.40 0.0 0 1 916.68 706.94
  L 915.32 706.94
  A 0.40 0.40 0.0 0 1 914.92 706.54
  L 914.92 689.69
  A 0.40 0.40 0.0 0 1 915.32 689.29
  L 925.78 689.29
  A 0.40 0.40 0.0 0 1 926.18 689.69
  Z"
/>
<path fill="#C8A45D" d="
  M 954.35 702.91
  Q 951.17 702.90 950.78 702.92
  A 1.00 1.00 0.0 0 0 949.81 703.53
  L 948.73 706.12
  A 1.40 1.39 6.2 0 1 947.70 706.94
  L 947.23 707.02
  A 0.77 0.77 0.0 0 1 946.39 705.97
  Q 951.19 694.19 952.58 690.34
  C 952.86 689.57 953.54 689.24 954.37 689.25
  C 955.22 689.25 955.90 689.57 956.17 690.35
  Q 957.55 694.20 962.29 706.01
  A 0.77 0.77 0.0 0 1 961.44 707.05
  L 960.97 706.97
  A 1.40 1.39 -5.9 0 1 959.94 706.15
  L 958.88 703.55
  A 1.00 1.00 0.0 0 0 957.91 702.94
  Q 957.52 702.92 954.35 702.91
  Z
  M 954.30 700.72
  Q 957.06 700.73 957.35 700.73
  A 0.24 0.23 -11.1 0 0 957.57 700.41
  L 954.58 692.33
  A 0.26 0.18 10.1 0 0 954.45 692.20
  Q 954.38 692.17 954.32 692.17
  Q 954.29 692.17 954.22 692.20
  A 0.26 0.18 -9.7 0 0 954.09 692.32
  L 951.03 700.38
  A 0.24 0.23 11.5 0 0 951.25 700.70
  Q 951.54 700.71 954.30 700.72
  Z"
/>
<path fill="#C8A45D" d="
  M 1053.89 702.71
  Q 1050.72 702.71 1050.33 702.73
  A 1.00 0.99 12.6 0 0 1049.37 703.34
  L 1048.30 705.93
  A 1.40 1.39 6.0 0 1 1047.27 706.75
  L 1046.81 706.83
  A 0.77 0.77 0.0 0 1 1045.96 705.79
  Q 1050.71 694.01 1052.09 690.17
  C 1052.37 689.40 1053.04 689.07 1053.89 689.07
  C 1054.72 689.07 1055.40 689.39 1055.67 690.17
  Q 1057.06 694.01 1061.83 705.77
  A 0.77 0.77 0.0 0 1 1060.98 706.82
  L 1060.52 706.74
  A 1.40 1.39 -6.1 0 1 1059.49 705.92
  L 1058.42 703.33
  A 1.00 0.99 -12.7 0 0 1057.45 702.73
  Q 1057.06 702.71 1053.89 702.71
  Z
  M 1050.79 700.30
  A 0.32 0.32 0.0 0 0 1051.10 700.73
  L 1056.79 700.72
  A 0.32 0.32 0.0 0 0 1057.09 700.29
  L 1054.23 692.40
  A 0.32 0.32 0.0 0 0 1053.63 692.40
  L 1050.79 700.30
  Z"
/>
<path fill="#C8A45D" d="
  M 1086.56 704.81
  L 1093.76 704.81
  A 0.34 0.34 0.0 0 1 1094.10 705.15
  L 1094.10 706.28
  A 0.34 0.34 0.0 0 1 1093.76 706.62
  L 1084.58 706.62
  A 0.34 0.34 0.0 0 1 1084.24 706.28
  L 1084.24 689.62
  A 0.34 0.34 0.0 0 1 1084.58 689.28
  L 1085.88 689.28
  A 0.34 0.34 0.0 0 1 1086.22 689.62
  L 1086.22 704.47
  A 0.34 0.34 0.0 0 0 1086.56 704.81
  Z"
/>
</svg>
