<?xml version="1.0" encoding="UTF-8" standalone="no"?>
<!DOCTYPE svg PUBLIC "-//W3C//DTD SVG 1.1//EN" "http://www.w3.org/Graphics/SVG/1.1/DTD/svg11.dtd">
<svg xmlns="http://www.w3.org/2000/svg" version="1.1" viewBox="0.00 0.00 1254.00 1254.00">
<path fill="#664930" d="
  M 233.42 316.91
  C 275.21 258.30 330.07 208.93 392.77 174.03
  Q 457.20 138.16 529.67 123.21
  Q 650.26 98.32 767.83 133.87
  C 821.96 150.24 874.58 176.91 919.85 211.99
  Q 988.98 265.57 1035.15 338.38
  Q 1105.68 449.64 1115.96 580.27
  C 1124.13 684.01 1099.87 787.91 1045.27 876.70
  Q 993.43 961.00 913.07 1018.95
  Q 847.67 1066.11 769.91 1090.28
  Q 669.55 1121.47 565.59 1108.11
  C 445.28 1092.66 334.48 1032.16 255.24 940.73
  C 167.53 839.53 125.87 706.79 138.21 573.98
  Q 151.42 431.91 233.42 316.91
  Z
  M 396.11 180.32
  C 334.30 214.73 280.22 263.40 239.03 321.17
  Q 158.19 434.54 145.17 574.59
  C 133.01 705.52 174.07 836.37 260.54 936.13
  C 338.65 1026.26 447.88 1085.91 566.48 1101.14
  Q 668.96 1114.31 767.90 1083.56
  Q 844.55 1059.73 909.02 1013.24
  Q 988.24 956.11 1039.35 873.01
  C 1093.17 785.48 1117.09 683.06 1109.03 580.79
  Q 1098.90 452.02 1029.37 342.34
  Q 983.85 270.56 915.71 217.74
  C 871.08 183.16 819.21 156.87 765.85 140.73
  Q 649.95 105.69 531.07 130.23
  Q 459.63 144.96 396.11 180.32
  Z"
/>
<path fill="#664930" d="
  M 612.59 182.27
  L 612.93 186.76
  A 0.51 0.51 0.0 0 1 612.46 187.31
  L 590.93 188.98
  A 0.51 0.51 0.0 0 0 590.46 189.53
  L 591.50 202.96
  A 0.51 0.51 0.0 0 0 592.05 203.43
  L 610.34 202.02
  A 0.51 0.51 0.0 0 1 610.89 202.49
  L 611.25 207.16
  A 0.51 0.51 0.0 0 1 610.78 207.71
  L 592.59 209.11
  A 0.51 0.51 0.0 0 0 592.12 209.66
  L 593.26 224.43
  A 0.51 0.51 0.0 0 0 593.81 224.90
  L 615.77 223.20
  A 0.51 0.51 0.0 0 1 616.32 223.67
  L 616.66 228.12
  A 0.51 0.51 0.0 0 1 616.19 228.67
  L 587.84 230.86
  A 0.51 0.51 0.0 0 1 587.29 230.39
  L 583.75 184.49
  A 0.51 0.51 0.0 0 1 584.22 183.94
  L 612.04 181.80
  A 0.51 0.51 0.0 0 1 612.59 182.27
  Z"
/>
<path fill="#664930" d="
  M 677.58 230.64
  A 0.80 0.80 0.0 0 1 676.72 231.36
  L 649.58 229.10
  A 0.47 0.47 0.0 0 1 649.14 228.59
  L 653.26 182.65
  A 0.46 0.46 0.0 0 1 653.76 182.22
  L 659.02 182.65
  A 0.51 0.51 0.0 0 1 659.49 183.21
  L 655.94 223.61
  A 0.53 0.53 0.0 0 0 656.43 224.18
  L 677.05 225.80
  A 0.95 0.94 -85.3 0 1 677.92 226.83
  L 677.58 230.64
  Z"
/>
<path fill="#664930" d="
  M 513.31 203.27
  L 512.11 198.48
  A 0.37 0.37 0.0 0 1 512.38 198.03
  L 543.45 190.25
  A 0.37 0.37 0.0 0 1 543.90 190.52
  L 544.98 194.84
  A 0.37 0.37 0.0 0 1 544.97 195.06
  L 529.43 236.01
  A 0.37 0.37 0.0 0 0 529.87 236.50
  L 554.04 230.45
  A 0.37 0.37 0.0 0 1 554.49 230.72
  L 555.68 235.47
  A 0.37 0.37 0.0 0 1 555.41 235.92
  L 523.00 244.03
  A 0.37 0.37 0.0 0 1 522.55 243.76
  L 521.58 239.88
  A 0.37 0.37 0.0 0 1 521.59 239.66
  L 537.31 198.24
  A 0.37 0.37 0.0 0 0 536.87 197.75
  L 513.76 203.54
  A 0.37 0.37 0.0 0 1 513.31 203.27
  Z"
/>
<path fill="#664930" d="
  M 707.89 236.10
  L 719.03 191.82
  A 0.60 0.60 0.0 0 1 719.76 191.39
  L 724.67 192.63
  A 0.60 0.60 0.0 0 1 725.10 193.36
  L 715.31 232.27
  A 0.60 0.60 0.0 0 0 715.74 233.00
  L 736.04 238.11
  A 0.60 0.60 0.0 0 1 736.47 238.84
  L 735.42 243.03
  A 0.60 0.60 0.0 0 1 734.69 243.46
  L 708.32 236.83
  A 0.60 0.60 0.0 0 1 707.89 236.10
  Z"
/>
<path fill="#664930" d="
  M 781.00 231.56
  Q 781.04 231.58 781.08 231.58
  A 0.21 0.17 -57.6 0 0 781.23 231.53
  L 799.94 218.28
  A 1.84 1.84 0.0 0 1 801.66 218.06
  L 806.27 219.81
  A 0.56 0.55 37.6 0 1 806.40 220.78
  L 782.36 237.85
  A 4.50 4.46 -6.9 0 0 780.80 239.82
  L 774.13 256.30
  A 0.54 0.54 0.0 0 1 773.47 256.61
  Q 773.23 256.53 770.97 255.59
  Q 768.71 254.65 768.49 254.53
  A 0.54 0.54 0.0 0 1 768.24 253.84
  L 775.27 237.51
  A 4.50 4.46 52.2 0 0 775.58 235.02
  L 770.82 205.92
  A 0.56 0.55 7.8 0 1 771.60 205.33
  L 776.08 207.38
  A 1.84 1.84 0.0 0 1 777.14 208.76
  L 780.87 231.38
  A 0.21 0.17 -77.1 0 0 780.93 231.52
  Q 780.96 231.54 781.00 231.56
  Z"
/>
<rect fill="#664930" x="-3.05" y="-23.48" transform="translate(480.43,234.36) rotate(-21.7)" width="6.10" height="46.96" rx="0.67"/>
<path fill="#664930" d="
  M 434.93 237.42
  A 0.83 0.83 0.0 0 1 435.39 238.48
  L 433.89 242.44
  A 0.87 0.87 0.0 0 1 432.74 242.93
  Q 427.82 240.82 423.25 242.26
  C 413.82 245.25 408.36 253.62 411.13 263.41
  Q 412.41 267.94 416.65 272.79
  C 422.54 279.54 431.26 280.26 438.36 274.93
  Q 447.79 267.84 441.41 257.49
  A 0.42 0.41 -32.0 0 0 440.83 257.36
  L 431.44 263.31
  A 0.91 0.91 0.0 0 1 430.17 263.00
  L 428.21 259.60
  A 0.86 0.86 0.0 0 1 428.53 258.42
  L 443.47 249.80
  A 0.56 0.56 0.0 0 1 444.24 250.00
  C 446.46 253.74 450.15 260.29 449.90 265.01
  C 449.34 275.33 440.44 282.43 431.13 284.11
  C 421.00 285.95 411.34 279.38 407.05 270.27
  Q 401.13 257.67 407.39 247.50
  C 412.82 238.65 424.96 233.31 434.93 237.42
  Z"
/>
<path fill="#664930" d="
  M 865.71 301.39
  Q 865.76 301.43 865.81 301.44
  A 0.33 0.15 -37.5 0 0 866.02 301.39
  L 899.93 281.56
  A 1.24 1.23 48.0 0 1 901.29 281.64
  L 905.17 284.55
  A 0.74 0.74 0.0 0 1 905.09 285.79
  L 863.41 309.29
  A 1.00 0.99 41.0 0 1 862.56 309.35
  Q 862.34 309.26 860.52 307.77
  Q 858.69 306.28 858.56 306.08
  A 1.00 0.99 37.4 0 1 858.44 305.24
  L 873.06 259.68
  A 0.74 0.74 0.0 0 1 874.26 259.35
  L 877.89 262.56
  A 1.24 1.23 30.4 0 1 878.24 263.88
  L 865.65 301.09
  A 0.33 0.15 -64.1 0 0 865.65 301.31
  Q 865.67 301.36 865.71 301.39
  Z"
/>
<rect fill="#664930" x="-22.89" y="-3.07" transform="translate(916.83,328.76) rotate(-44.2)" width="45.78" height="6.14" rx="0.76"/>
<circle fill="#664930" cx="362.51" cy="334.67" r="3.97"/>
<path fill="#664930" d="
  M 321.30 387.60
  L 318.27 391.64
  A 0.47 0.47 0.0 0 1 317.50 391.60
  L 292.24 351.74
  A 0.47 0.47 0.0 0 1 292.26 351.21
  L 295.52 346.86
  A 0.47 0.47 0.0 0 1 296.02 346.69
  L 342.15 359.73
  A 0.47 0.47 0.0 0 1 342.40 360.47
  L 339.19 364.74
  A 0.47 0.47 0.0 0 1 338.69 364.91
  L 327.94 361.88
  A 0.47 0.47 0.0 0 0 327.44 362.05
  L 315.72 377.68
  A 0.47 0.47 0.0 0 0 315.70 378.21
  L 321.32 387.07
  A 0.47 0.47 0.0 0 1 321.30 387.60
  Z
  M 312.05 372.50
  A 0.53 0.53 0.0 0 0 312.92 372.53
  L 321.80 360.70
  A 0.53 0.53 0.0 0 0 321.53 359.88
  L 300.90 353.64
  A 0.53 0.53 0.0 0 0 300.30 354.43
  L 312.05 372.50
  Z"
/>
<path fill="#664930" d="
  M 969.40 357.56
  L 972.02 361.71
  A 0.43 0.43 0.0 0 1 972.02 362.17
  L 946.29 401.96
  A 0.43 0.43 0.0 0 1 945.57 401.95
  L 942.58 397.22
  A 0.43 0.43 0.0 0 1 942.58 396.76
  L 947.91 388.52
  A 0.43 0.43 0.0 0 0 947.91 388.06
  L 937.44 371.53
  A 0.43 0.43 0.0 0 0 936.97 371.35
  L 926.23 374.03
  A 0.43 0.43 0.0 0 1 925.78 373.87
  L 922.60 369.58
  A 0.43 0.43 0.0 0 1 922.84 368.90
  L 968.93 357.38
  A 0.43 0.43 0.0 0 1 969.40 357.56
  Z
  M 942.68 369.87
  A 0.35 0.35 0.0 0 0 942.49 370.41
  L 951.15 382.56
  A 0.35 0.35 0.0 0 0 951.72 382.55
  L 964.29 364.43
  A 0.35 0.35 0.0 0 0 963.91 363.89
  L 942.68 369.87
  Z"
/>
<path fill="#664930" d="
  M 707.97 744.69
  Q 708.34 744.49 708.56 743.75
  Q 714.34 724.54 718.04 713.40
  Q 726.22 688.72 733.55 666.68
  Q 755.86 599.55 777.82 531.86
  C 781.39 520.86 783.46 512.67 783.86 502.28
  Q 783.98 499.09 782.42 493.07
  C 778.04 476.18 759.44 471.65 744.41 472.23
  A 0.86 0.86 0.0 0 1 743.52 471.37
  L 743.52 468.40
  A 0.89 0.88 90.0 0 1 744.40 467.51
  L 852.53 467.51
  A 0.54 0.54 0.0 0 1 853.07 468.05
  L 853.07 471.68
  A 0.51 0.50 -88.9 0 1 852.55 472.19
  C 837.71 471.74 823.51 476.41 812.46 486.45
  Q 803.14 494.92 796.60 506.85
  Q 790.71 517.57 787.99 524.50
  Q 782.21 539.17 776.81 555.26
  Q 767.74 582.33 744.37 655.04
  Q 719.08 733.70 717.83 737.78
  Q 715.84 744.23 712.93 752.80
  C 710.67 759.46 708.43 767.96 706.53 773.54
  Q 700.56 791.09 696.12 806.24
  A 0.78 0.78 0.0 0 1 694.65 806.30
  L 647.41 686.57
  A 1.18 1.17 -19.5 0 0 645.95 685.88
  C 639.52 687.97 635.55 689.48 629.24 690.95
  C 598.06 698.18 565.07 699.74 533.51 693.70
  Q 507.80 688.79 484.97 677.06
  Q 477.28 673.11 469.81 667.96
  Q 460.95 661.86 455.71 657.52
  Q 449.30 652.21 440.78 642.74
  Q 428.11 628.65 419.32 610.93
  Q 413.81 599.81 410.97 591.89
  C 389.62 532.39 400.68 464.39 445.29 418.18
  C 452.11 411.11 460.22 404.48 467.70 399.20
  Q 469.46 397.96 479.91 391.85
  Q 486.02 388.28 492.64 385.47
  Q 530.95 369.23 572.00 371.81
  Q 598.16 373.46 623.55 384.77
  Q 627.89 386.70 644.12 395.60
  C 651.01 399.39 658.87 402.30 664.87 395.03
  A 0.71 0.70 -57.5 0 1 665.71 394.84
  L 667.87 395.88
  A 0.84 0.84 0.0 0 1 668.31 396.88
  L 650.34 454.99
  A 0.53 0.52 16.9 0 1 649.68 455.34
  L 646.98 454.51
  A 0.70 0.70 0.0 0 1 646.51 453.66
  C 650.66 438.13 645.64 421.67 636.21 409.32
  Q 634.50 407.09 627.65 400.10
  Q 623.46 395.84 616.83 391.89
  Q 603.39 383.88 587.16 380.83
  C 548.04 373.50 508.72 384.96 479.56 412.35
  C 472.85 418.65 465.70 427.50 461.00 434.26
  C 455.73 441.85 450.07 452.94 445.58 464.46
  Q 442.40 472.63 440.74 478.59
  C 426.18 531.00 436.01 586.24 468.25 630.00
  Q 470.63 633.25 479.21 642.22
  Q 485.28 648.58 491.24 653.34
  Q 534.46 687.93 591.26 688.31
  Q 596.86 688.34 608.82 687.27
  C 621.31 686.16 632.51 683.43 643.65 680.05
  A 0.82 0.82 0.0 0 0 644.19 678.97
  Q 632.84 648.84 623.18 624.58
  Q 619.66 615.72 616.65 607.71
  C 613.54 599.44 609.86 591.31 606.35 582.24
  Q 600.21 566.34 593.01 549.02
  Q 586.94 534.43 577.19 524.64
  C 566.65 514.06 548.95 510.58 533.77 511.49
  A 0.99 0.99 0.0 0 1 532.72 510.50
  L 532.72 507.68
  A 1.02 1.02 0.0 0 1 533.74 506.66
  L 686.20 506.66
  A 0.43 0.43 0.0 0 1 686.63 507.09
  L 686.63 510.90
  A 0.41 0.40 -90.0 0 1 686.23 511.31
  Q 671.48 511.24 659.77 511.70
  Q 647.21 512.20 637.83 515.10
  C 625.72 518.84 625.19 529.94 628.73 540.27
  Q 631.91 549.56 636.01 560.25
  Q 655.22 610.28 658.29 618.26
  Q 664.04 633.21 666.32 638.76
  C 670.51 648.96 673.33 657.57 676.87 666.14
  Q 682.09 678.76 686.58 691.20
  C 688.81 697.38 692.85 706.12 695.28 713.38
  Q 696.88 718.15 698.62 722.31
  Q 702.57 731.79 707.14 744.38
  A 0.59 0.58 65.2 0 0 707.97 744.69
  Z"
/>
<path fill="#664930" d="
  M 281.04 416.03
  A 0.50 0.49 -87.6 0 0 281.56 416.60
  L 302.15 415.00
  A 0.71 0.71 0.0 0 1 302.82 416.05
  L 300.61 420.10
  A 2.15 2.15 0.0 0 1 298.80 421.21
  L 279.26 421.83
  A 1.13 1.13 0.0 0 0 278.31 422.41
  L 274.01 430.29
  A 0.70 0.70 0.0 0 0 274.29 431.25
  L 288.68 439.11
  A 0.88 0.88 0.0 0 1 289.05 440.26
  L 287.13 444.27
  A 0.74 0.74 0.0 0 1 286.10 444.60
  L 248.13 423.86
  A 0.72 0.72 0.0 0 1 247.84 422.89
  Q 253.24 412.99 255.55 408.56
  C 258.58 402.77 263.22 398.37 270.20 399.96
  Q 283.19 402.90 281.04 416.03
  Z
  M 255.75 421.18
  L 268.43 428.04
  A 0.89 0.89 0.0 0 0 269.64 427.68
  L 274.98 417.81
  A 8.19 7.82 -61.6 0 0 271.99 406.88
  L 271.50 406.62
  A 8.19 7.82 -61.6 0 0 260.73 410.10
  L 255.39 419.97
  A 0.89 0.89 0.0 0 0 255.75 421.18
  Z"
/>
<path fill="#664930" d="
  M 1015.10 438.52
  L 1017.35 443.24
  A 0.31 0.31 0.0 0 1 1017.20 443.65
  L 978.28 462.19
  A 0.31 0.31 0.0 0 1 977.87 462.04
  L 975.53 457.12
  A 0.31 0.31 0.0 0 1 975.54 456.83
  L 995.70 421.90
  A 0.31 0.31 0.0 0 0 995.30 421.47
  L 965.48 435.67
  A 0.31 0.31 0.0 0 1 965.07 435.52
  L 962.81 430.79
  A 0.31 0.31 0.0 0 1 962.96 430.38
  L 1002.00 411.78
  A 0.31 0.31 0.0 0 1 1002.41 411.93
  L 1004.86 417.07
  A 0.31 0.31 0.0 0 1 1004.85 417.36
  L 984.89 451.94
  A 0.31 0.31 0.0 0 0 985.29 452.37
  L 1014.69 438.37
  A 0.31 0.31 0.0 0 1 1015.10 438.52
  Z"
/>
<path fill="#664930" d="
  M 219.87 496.50
  A 0.79 0.79 0.0 0 1 219.37 495.50
  L 224.68 479.90
  A 20.83 20.79 -71.2 0 1 251.08 466.88
  L 253.86 467.83
  A 20.83 20.79 -71.2 0 1 266.83 494.25
  L 261.52 509.85
  A 0.79 0.79 0.0 0 1 260.52 510.34
  L 219.87 496.50
  Z
  M 226.66 492.24
  L 257.41 503.07
  A 0.67 0.67 0.0 0 0 258.26 502.66
  L 261.61 493.16
  A 15.83 15.12 19.4 0 0 251.70 473.64
  L 249.55 472.89
  A 15.83 15.12 19.4 0 0 229.60 481.89
  L 226.25 491.39
  A 0.67 0.67 0.0 0 0 226.66 492.24
  Z"
/>
<path fill="#664930" d="
  M 1035.70 497.41
  Q 1036.08 498.70 1036.26 499.57
  A 1.23 1.23 0.0 0 1 1035.81 500.79
  L 1000.35 528.43
  A 0.58 0.58 0.0 0 1 999.44 528.14
  L 998.17 523.93
  A 1.33 1.33 0.0 0 1 998.63 522.50
  L 1006.33 516.49
  A 1.05 1.04 63.9 0 0 1006.70 515.40
  Q 1006.03 512.84 1004.21 506.65
  Q 1002.39 500.46 1001.57 497.95
  A 1.05 1.04 83.4 0 0 1000.68 497.23
  L 990.95 496.33
  A 1.33 1.33 0.0 0 1 989.79 495.38
  L 988.58 491.15
  A 0.58 0.58 0.0 0 1 989.19 490.42
  L 1033.97 494.51
  A 1.23 1.23 0.0 0 1 1035.00 495.29
  Q 1035.32 496.12 1035.70 497.41
  Z
  M 1007.21 497.77
  A 0.43 0.43 0.0 0 0 1006.77 498.33
  L 1010.93 512.20
  A 0.43 0.43 0.0 0 0 1011.60 512.42
  L 1028.26 499.86
  A 0.43 0.43 0.0 0 0 1028.03 499.09
  L 1007.21 497.77
  Z"
/>
<path fill="#664930" d="
  M 461.99 679.35
  A 0.43 0.43 0.0 0 1 462.74 679.45
  C 465.50 686.92 467.96 694.15 471.90 701.31
  Q 483.84 723.01 501.63 739.90
  Q 515.84 753.41 531.82 764.94
  Q 546.46 775.51 578.01 796.58
  Q 602.07 812.63 620.66 828.68
  Q 634.99 841.05 647.24 857.00
  C 653.27 864.85 658.14 873.49 662.23 881.15
  A 0.39 0.39 0.0 0 0 662.91 881.16
  Q 671.15 866.31 673.48 862.72
  Q 685.68 843.88 700.91 828.67
  Q 703.36 826.23 711.41 818.64
  C 717.70 812.71 724.16 808.36 731.69 802.29
  Q 734.83 799.76 740.95 795.37
  Q 757.84 783.25 773.90 772.15
  Q 780.29 767.73 798.55 753.52
  Q 812.10 742.97 821.86 733.30
  Q 837.18 718.12 843.61 709.87
  C 858.06 691.32 868.18 672.94 874.05 651.30
  C 878.96 633.18 879.65 614.04 874.25 595.51
  C 870.89 583.98 862.11 569.16 850.76 562.52
  Q 843.16 558.07 839.32 556.66
  Q 826.52 551.94 811.53 554.55
  Q 802.76 556.07 798.52 557.77
  Q 790.69 560.90 784.04 564.42
  A 0.29 0.28 -21.6 0 1 783.63 564.25
  Q 783.39 563.37 784.23 562.70
  Q 794.84 554.29 803.40 549.91
  C 808.15 547.49 813.85 545.79 819.03 544.35
  C 832.35 540.63 850.85 543.04 863.11 550.41
  Q 877.93 559.32 886.37 574.07
  C 889.32 579.22 890.94 584.35 893.30 590.69
  Q 895.47 596.54 896.35 602.69
  Q 900.14 629.23 892.29 655.05
  Q 885.63 676.99 873.84 695.38
  Q 860.17 716.71 841.66 734.17
  C 822.16 752.56 800.43 768.07 778.11 782.62
  Q 753.98 798.36 739.41 808.42
  Q 731.66 813.76 726.50 818.07
  C 720.60 822.99 715.75 826.33 709.89 831.73
  Q 693.51 846.82 684.27 858.52
  Q 669.10 877.72 658.40 899.62
  A 0.51 0.51 0.0 0 1 657.49 899.62
  Q 647.77 880.00 633.79 862.95
  Q 621.26 847.68 603.73 832.77
  Q 589.06 820.29 556.01 796.43
  C 547.01 789.94 536.34 782.16 530.77 777.71
  C 515.45 765.48 504.66 756.63 494.64 745.27
  C 478.43 726.90 465.10 704.33 461.83 679.70
  A 0.30 0.28 60.7 0 1 461.86 679.57
  Q 461.96 679.39 461.99 679.35
  Z"
/>
<ellipse fill="#664930" cx="0.00" cy="0.00" transform="translate(1033.72,619.39) rotate(-81.9)" rx="10.51" ry="10.30"/>
<ellipse fill="#664930" cx="0.00" cy="0.00" transform="translate(221.52,619.38) rotate(-99.0)" rx="10.47" ry="10.35"/>
<path fill="#664930" d="
  M 246.75 744.77
  Q 248.44 749.95 250.02 755.17
  A 0.49 0.49 0.0 0 0 250.63 755.50
  L 267.48 750.42
  A 0.62 0.62 0.0 0 1 268.25 750.83
  L 269.50 754.96
  A 0.51 0.51 0.0 0 1 269.17 755.60
  Q 252.10 761.12 249.66 761.92
  Q 247.21 762.71 230.16 768.29
  A 0.51 0.51 0.0 0 1 229.52 767.97
  L 228.10 763.89
  A 0.62 0.62 0.0 0 1 228.48 763.11
  L 245.09 757.30
  A 0.49 0.49 0.0 0 0 245.40 756.68
  Q 243.60 751.52 241.92 746.35
  Q 240.23 741.17 238.65 735.95
  A 0.49 0.49 0.0 0 0 238.04 735.62
  L 221.19 740.70
  A 0.62 0.62 0.0 0 1 220.42 740.29
  L 219.17 736.16
  A 0.51 0.51 0.0 0 1 219.50 735.52
  Q 236.57 730.00 239.01 729.20
  Q 241.46 728.41 258.51 722.83
  A 0.51 0.51 0.0 0 1 259.15 723.15
  L 260.57 727.23
  A 0.62 0.62 0.0 0 1 260.19 728.01
  L 243.58 733.82
  A 0.49 0.49 0.0 0 0 243.27 734.44
  Q 245.07 739.60 246.75 744.77
  Z"
/>
<path fill="#664930" d="
  M 992.05 744.40
  L 993.30 740.37
  A 0.68 0.68 0.0 0 1 994.15 739.92
  L 1027.17 750.13
  A 0.68 0.68 0.0 0 0 1028.02 749.68
  L 1033.60 731.63
  A 0.68 0.68 0.0 0 1 1034.45 731.18
  L 1037.79 732.22
  A 0.68 0.68 0.0 0 1 1038.24 733.07
  L 1031.02 756.44
  A 0.68 0.68 0.0 0 1 1030.17 756.89
  L 992.50 745.25
  A 0.68 0.68 0.0 0 1 992.05 744.40
  Z"
/>
<path fill="#664930" d="
  M 1019.74 786.29
  A 0.64 0.63 -75.3 0 1 1020.27 787.20
  L 1018.35 791.22
  A 1.17 1.17 0.0 0 1 1017.22 791.88
  L 1008.68 791.28
  A 1.21 1.21 0.0 0 0 1007.51 791.97
  L 1000.31 807.02
  A 1.08 1.08 0.0 0 0 1000.52 808.25
  L 1006.79 814.52
  A 1.06 1.05 -54.6 0 1 1006.99 815.73
  L 1005.31 819.25
  A 0.74 0.74 0.0 0 1 1004.11 819.44
  C 993.53 808.35 984.07 798.97 975.74 788.44
  A 1.13 1.12 -51.5 0 1 975.61 787.25
  L 977.18 783.96
  A 1.01 0.99 -74.7 0 1 978.15 783.39
  L 1019.74 786.29
  Z
  M 996.01 803.07
  A 0.35 0.35 0.0 0 0 996.57 802.98
  L 1002.27 791.30
  A 0.35 0.35 0.0 0 0 1001.99 790.80
  L 983.15 788.84
  A 0.35 0.35 0.0 0 0 982.86 789.43
  L 996.01 803.07
  Z"
/>
<path fill="#664930" d="
  M 260.51 811.62
  Q 257.73 806.19 256.52 803.99
  A 0.99 0.99 0.0 0 0 255.56 803.48
  L 246.36 804.37
  A 1.26 1.26 0.0 0 1 245.11 803.68
  L 243.25 799.96
  A 0.55 0.55 0.0 0 1 243.68 799.17
  L 286.04 795.08
  A 1.16 1.16 0.0 0 1 287.14 795.62
  Q 287.58 796.34 288.16 797.47
  Q 288.74 798.61 289.06 799.39
  A 1.16 1.16 0.0 0 1 288.86 800.60
  L 260.76 832.55
  A 0.55 0.55 0.0 0 1 259.87 832.45
  L 257.94 828.75
  A 1.26 1.26 0.0 0 1 258.12 827.34
  L 264.22 820.40
  A 0.99 0.99 0.0 0 0 264.37 819.32
  Q 263.29 817.06 260.51 811.62
  Z
  M 261.91 802.77
  A 0.30 0.30 0.0 0 0 261.68 803.20
  L 267.98 815.46
  A 0.30 0.30 0.0 0 0 268.47 815.52
  L 281.41 801.13
  A 0.30 0.30 0.0 0 0 281.15 800.63
  L 261.91 802.77
  Z"
/>
<rect fill="#664930" x="-20.47" y="-2.72" transform="translate(971.76,835.93) rotate(32.6)" width="40.94" height="5.44" rx="0.66"/>
<path fill="#664930" d="
  M 303.10 865.88
  A 0.27 0.27 0.0 0 0 302.67 865.98
  L 295.77 884.15
  A 0.66 0.65 36.9 0 1 294.63 884.31
  L 291.82 880.52
  A 0.99 0.98 37.3 0 1 291.69 879.57
  L 298.69 861.12
  A 0.48 0.47 38.9 0 0 298.64 860.70
  L 294.83 854.67
  A 0.39 0.38 -34.5 0 0 294.28 854.57
  L 281.20 864.27
  A 0.62 0.62 0.0 0 1 280.33 864.14
  L 277.91 860.88
  A 0.71 0.71 0.0 0 1 278.06 859.89
  L 310.00 836.21
  A 1.01 1.01 0.0 0 1 311.43 836.45
  Q 313.38 839.31 319.19 847.32
  Q 320.19 848.70 322.27 853.62
  A 4.51 4.28 -60.9 0 1 322.57 854.79
  Q 323.46 862.49 317.45 866.55
  C 312.85 869.65 307.47 869.71 303.10 865.88
  Z
  M 309.35 843.58
  L 298.71 851.17
  A 0.64 0.64 0.0 0 0 298.56 852.06
  L 304.55 860.45
  A 6.66 6.44 54.5 0 0 313.66 862.13
  L 314.84 861.28
  A 6.66 6.44 54.5 0 0 316.22 852.12
  L 310.24 843.73
  A 0.64 0.64 0.0 0 0 309.35 843.58
  Z"
/>
<path fill="#664930" d="
  M 944.67 853.49
  A 0.70 0.70 0.0 0 1 945.26 854.33
  L 944.46 858.13
  A 0.86 0.86 0.0 0 1 943.58 858.81
  C 937.51 858.55 933.13 861.75 930.60 867.25
  C 925.25 878.86 939.38 892.77 951.29 888.90
  C 958.34 886.61 961.38 879.48 960.51 872.46
  A 1.08 1.08 0.0 0 1 961.32 871.29
  L 964.39 870.52
  A 0.97 0.97 0.0 0 1 965.59 871.32
  Q 967.46 883.46 958.05 891.08
  C 953.00 895.17 946.14 896.34 939.89 893.94
  C 933.70 891.57 927.49 886.30 925.17 879.97
  Q 923.84 876.34 924.37 871.43
  Q 925.77 858.29 939.17 853.74
  Q 941.31 853.02 944.67 853.49
  Z"
/>
<path fill="#664930" d="
  M 337.69 917.70
  Q 337.73 917.75 337.78 917.77
  A 0.34 0.22 37.6 0 0 338.02 917.79
  L 369.23 904.99
  A 1.26 1.25 -33.4 0 1 370.60 905.27
  L 374.15 908.81
  A 0.75 0.74 45.3 0 1 374.15 909.86
  L 345.66 938.35
  A 0.35 0.35 0.0 0 1 345.16 938.35
  L 341.94 935.13
  A 0.48 0.47 45.4 0 1 341.94 934.46
  L 363.20 913.20
  A 0.26 0.26 0.0 0 0 362.92 912.77
  L 333.54 924.75
  A 0.82 0.81 44.4 0 1 332.92 924.75
  Q 332.77 924.69 331.74 923.67
  Q 330.72 922.65 330.66 922.50
  A 0.82 0.81 45.4 0 1 330.66 921.88
  L 342.54 892.46
  A 0.26 0.26 0.0 0 0 342.11 892.18
  L 320.92 913.51
  A 0.48 0.47 44.4 0 1 320.25 913.51
  L 317.02 910.30
  A 0.35 0.35 0.0 0 1 317.02 909.80
  L 345.41 881.22
  A 0.75 0.74 44.5 0 1 346.46 881.21
  L 350.01 884.75
  A 1.26 1.25 -56.8 0 1 350.30 886.12
  L 337.60 917.37
  A 0.34 0.22 52.2 0 0 337.63 917.61
  Q 337.65 917.66 337.69 917.70
  Z"
/>
<path fill="#664930" d="
  M 911.10 927.30
  Q 908.05 930.19 904.72 933.28
  A 0.68 0.68 0.0 0 0 904.55 934.04
  L 908.08 942.49
  A 1.23 1.22 56.1 0 1 907.82 943.83
  L 905.20 946.45
  A 0.69 0.69 0.0 0 1 904.08 946.22
  L 887.61 906.78
  A 0.96 0.96 0.0 0 1 887.73 905.85
  Q 888.14 905.30 889.24 904.26
  Q 890.34 903.22 890.91 902.84
  A 0.96 0.96 0.0 0 1 891.84 902.76
  L 930.36 921.29
  A 0.69 0.69 0.0 0 1 930.53 922.42
  L 927.78 924.89
  A 1.23 1.22 36.9 0 1 926.43 925.08
  L 918.18 921.11
  A 0.68 0.68 0.0 0 0 917.41 921.24
  Q 914.14 924.40 911.10 927.30
  Z
  M 907.71 923.81
  Q 912.49 919.27 912.55 919.20
  A 0.46 0.46 0.0 0 0 912.40 918.49
  L 894.51 909.71
  A 0.10 0.07 -49.7 0 0 894.40 909.74
  Q 894.38 909.76 894.36 909.78
  Q 894.34 909.80 894.32 909.82
  A 0.10 0.07 -37.5 0 0 894.28 909.93
  L 902.16 928.23
  A 0.46 0.46 0.0 0 0 902.86 928.42
  Q 902.93 928.36 907.71 923.81
  Z"
/>
<path fill="#664930" d="
  M 862.93 927.33
  L 865.08 930.35
  A 0.60 0.60 0.0 0 1 864.95 931.18
  L 849.80 942.41
  A 0.60 0.60 0.0 0 0 849.68 943.25
  L 856.73 952.76
  A 0.60 0.60 0.0 0 0 857.57 952.88
  L 870.22 943.50
  A 0.60 0.60 0.0 0 1 871.06 943.64
  L 873.27 946.74
  A 0.60 0.60 0.0 0 1 873.14 947.57
  L 860.39 957.02
  A 0.60 0.60 0.0 0 0 860.26 957.85
  L 870.17 971.80
  A 0.60 0.60 0.0 0 1 870.04 972.63
  L 866.64 975.15
  A 0.60 0.60 0.0 0 1 865.80 975.02
  L 842.61 942.36
  A 0.60 0.60 0.0 0 1 842.74 941.53
  L 862.09 927.19
  A 0.60 0.60 0.0 0 1 862.93 927.33
  Z"
/>
<path fill="#664930" d="
  M 409.2886 935.3342
  A 21.61 20.37 -62.2 0 1 417.2289 963.9503
  A 21.61 20.37 -62.2 0 1 389.1314 973.5658
  A 21.61 20.37 -62.2 0 1 381.1911 944.9497
  A 21.61 20.37 -62.2 0 1 409.2886 935.3342
  Z
  M 407.7089 940.2900
  A 16.52 14.67 -59.2 0 0 386.6491 946.9683
  A 16.52 14.67 -59.2 0 0 390.7911 968.6700
  A 16.52 14.67 -59.2 0 0 411.8509 961.9917
  A 16.52 14.67 -59.2 0 0 407.7089 940.2900
  Z"
/>
<path fill="#664930" d="
  M 453.48 988.26
  Q 453.27 986.81 451.09 973.46
  A 0.26 0.25 53.4 0 0 450.61 973.39
  L 437.33 1001.14
  A 0.85 0.85 0.0 0 1 436.19 1001.54
  L 432.95 999.99
  A 0.89 0.89 0.0 0 1 432.53 998.80
  L 449.75 962.80
  A 0.79 0.79 0.0 0 1 450.80 962.43
  L 454.40 964.15
  A 1.43 1.43 0.0 0 1 455.21 965.25
  Q 457.27 979.78 458.39 987.55
  Q 458.60 989.00 460.78 1002.35
  A 0.26 0.25 53.4 0 0 461.26 1002.42
  L 474.54 974.67
  A 0.85 0.85 0.0 0 1 475.68 974.27
  L 478.92 975.82
  A 0.89 0.89 0.0 0 1 479.34 977.01
  L 462.12 1013.01
  A 0.79 0.79 0.0 0 1 461.07 1013.38
  L 457.47 1011.66
  A 1.43 1.43 0.0 0 1 456.66 1010.56
  Q 454.60 996.03 453.48 988.26
  Z"
/>
<path fill="#664930" d="
  M 773.4498 977.0686
  A 21.65 20.22 -110.1 0 1 799.8785 990.4512
  A 21.65 20.22 -110.1 0 1 788.3302 1017.7314
  A 21.65 20.22 -110.1 0 1 761.9015 1004.3488
  A 21.65 20.22 -110.1 0 1 773.4498 977.0686
  Z
  M 775.06 982.23
  C 757.06 989.17 768.96 1019.53 786.80 1012.64
  C 804.64 1005.75 793.06 975.28 775.06 982.23
  Z"
/>
<path fill="#664930" d="
  M 723.49 985.48
  C 724.57 992.27 718.98 992.85 714.29 990.65
  A 1.54 1.53 -67.3 0 0 712.21 991.51
  L 711.65 993.03
  A 1.19 1.19 0.0 0 1 711.33 993.51
  Q 710.67 994.13 709.57 994.17
  A 0.93 0.93 0.0 0 1 708.60 993.35
  Q 708.00 988.13 711.99 987.07
  C 714.24 986.48 716.97 987.72 719.00 987.93
  A 1.26 1.25 7.1 0 0 720.38 986.86
  Q 720.65 984.87 722.73 984.84
  A 0.76 0.75 -4.8 0 1 723.49 985.48
  Z"
/>
<rect fill="#664930" x="-2.74" y="-20.75" transform="translate(502.82,1007.06) rotate(18.0)" width="5.48" height="41.50" rx="0.65"/>
<path fill="#664930" d="
  M 733.27 1025.20
  L 717.00 1029.27
  A 0.63 0.63 0.0 0 0 716.52 1029.79
  L 715.25 1039.47
  A 0.63 0.63 0.0 0 1 714.77 1039.99
  L 710.49 1041.07
  A 0.63 0.63 0.0 0 1 709.71 1040.37
  L 715.37 997.39
  A 0.63 0.63 0.0 0 1 715.85 996.87
  L 719.95 995.84
  A 0.63 0.63 0.0 0 1 720.63 996.10
  L 744.61 1031.67
  A 0.63 0.63 0.0 0 1 744.24 1032.63
  L 740.00 1033.69
  A 0.63 0.63 0.0 0 1 739.32 1033.43
  L 733.95 1025.46
  A 0.63 0.63 0.0 0 0 733.27 1025.20
  Z
  M 717.13 1023.50
  A 0.35 0.35 0.0 0 0 717.56 1023.88
  L 730.36 1020.81
  A 0.35 0.35 0.0 0 0 730.57 1020.27
  L 719.99 1004.40
  A 0.35 0.35 0.0 0 0 719.35 1004.55
  L 717.13 1023.50
  Z"
/>
<path fill="#664930" d="
  M 558.49 1005.51
  A 0.17 0.16 -61.5 0 0 558.41 1005.23
  L 538.04 1000.96
  A 0.92 0.91 12.0 0 1 537.33 999.88
  L 537.99 996.73
  A 0.84 0.83 11.8 0 1 538.98 996.09
  L 565.86 1001.72
  A 0.51 0.50 12.8 0 1 566.25 1002.33
  Q 565.50 1005.60 565.27 1006.10
  A 1.10 0.92 -13.3 0 1 565.09 1006.34
  L 537.38 1032.50
  A 0.49 0.48 29.7 0 0 537.61 1033.33
  L 558.24 1037.65
  A 0.77 0.76 12.0 0 1 558.84 1038.56
  L 558.13 1041.94
  A 0.73 0.73 0.0 0 1 557.27 1042.50
  L 529.71 1036.72
  A 0.68 0.67 -81.8 0 1 529.18 1036.00
  Q 529.51 1032.58 530.32 1031.82
  Q 543.67 1019.42 558.49 1005.51
  Z"
/>
<path fill="#664930" d="
  M 664.38 1048.33
  A 0.52 0.51 -81.0 0 0 663.92 1047.69
  Q 653.47 1046.89 648.78 1038.37
  C 645.53 1032.46 644.75 1023.87 647.25 1017.26
  Q 651.94 1004.83 666.73 1005.11
  Q 674.57 1005.25 679.61 1011.19
  A 0.81 0.81 0.0 0 1 679.49 1012.35
  L 676.69 1014.53
  A 0.83 0.83 0.0 0 1 675.58 1014.45
  Q 669.17 1007.88 660.41 1011.13
  C 651.35 1014.50 649.44 1025.76 652.91 1033.97
  C 657.26 1044.26 670.88 1046.03 677.12 1036.43
  A 1.23 1.22 29.5 0 1 678.68 1036.00
  L 681.57 1037.38
  A 1.03 1.03 0.0 0 1 682.02 1038.82
  C 679.13 1043.80 673.84 1046.73 668.28 1047.44
  A 1.56 1.56 0.0 0 0 666.97 1048.57
  L 666.92 1048.77
  A 0.73 0.72 -84.3 0 0 667.67 1049.69
  C 673.70 1049.18 673.87 1056.61 668.66 1058.14
  Q 665.66 1059.02 662.28 1057.94
  A 1.06 1.05 -74.0 0 1 661.58 1056.67
  L 661.92 1055.30
  A 0.82 0.82 0.0 0 1 663.15 1054.80
  C 664.59 1055.71 668.16 1056.14 668.55 1053.73
  A 1.37 1.32 4.6 0 0 667.20 1052.21
  Q 666.36 1052.19 664.41 1052.33
  A 0.77 0.76 4.9 0 1 663.61 1051.38
  L 664.38 1048.33
  Z"
/>
<path fill="#664930" d="
  M 606.35 1006.31
  Q 607.54 1006.39 608.60 1006.72
  A 1.03 1.03 0.0 0 1 609.28 1007.40
  L 621.61 1048.21
  A 0.61 0.60 83.6 0 1 620.99 1048.99
  L 617.12 1048.72
  A 1.28 1.27 -6.2 0 1 615.98 1047.81
  L 613.23 1038.71
  A 0.53 0.52 82.6 0 0 612.76 1038.34
  Q 609.04 1038.18 604.30 1037.88
  Q 599.56 1037.57 595.85 1037.24
  A 0.53 0.52 -75.1 0 0 595.33 1037.54
  L 591.42 1046.21
  A 1.28 1.27 13.7 0 1 590.17 1046.96
  L 586.30 1046.73
  A 0.61 0.60 -76.2 0 1 585.79 1045.88
  L 603.31 1007.01
  A 1.03 1.03 0.0 0 1 604.07 1006.42
  Q 605.16 1006.23 606.35 1006.31
  Z
  M 598.07 1031.90
  A 0.35 0.35 0.0 0 0 598.37 1032.39
  L 610.90 1033.17
  A 0.35 0.35 0.0 0 0 611.26 1032.73
  L 606.15 1014.03
  A 0.35 0.35 0.0 0 0 605.49 1013.98
  L 598.07 1031.90
  Z"
/>
</svg>
