<?xml version="1.0" encoding="UTF-8" standalone="no"?>
<!DOCTYPE svg PUBLIC "-//W3C//DTD SVG 1.1//EN" "http://www.w3.org/Graphics/SVG/1.1/DTD/svg11.dtd">
<svg xmlns="http://www.w3.org/2000/svg" version="1.1" viewBox="235.00 210.00 795.00 805.00">
<path fill="#644831" d="
  M 781.53 361.68
  L 953.88 361.68
  A 0.70 0.70 0.0 0 1 954.58 362.38
  L 954.58 367.83
  A 0.63 0.63 0.0 0 1 953.93 368.46
  Q 945.01 368.27 934.74 369.76
  Q 904.98 374.08 884.13 395.40
  Q 874.42 405.33 867.75 416.00
  Q 859.00 430.01 855.46 438.44
  Q 852.95 444.40 850.87 448.99
  Q 847.12 457.25 846.35 459.58
  C 844.61 464.80 842.25 469.64 840.14 475.64
  Q 810.69 559.33 803.21 581.21
  Q 739.70 767.18 715.85 839.53
  Q 708.73 861.13 706.24 868.26
  A 0.90 0.90 0.0 0 1 704.56 868.31
  L 629.22 688.20
  A 0.60 0.59 69.9 0 0 628.50 687.86
  Q 592.56 699.14 553.32 703.15
  C 509.78 707.60 465.43 704.75 423.07 693.41
  Q 373.38 680.11 331.15 648.82
  C 305.17 629.57 284.24 605.06 268.69 576.65
  C 242.02 527.94 232.13 469.68 241.64 414.84
  Q 245.77 391.06 255.66 366.91
  C 282.57 301.22 336.00 252.08 403.33 229.89
  Q 454.11 213.15 510.26 216.57
  Q 562.22 219.74 606.68 242.85
  C 614.25 246.78 625.39 254.14 635.93 257.57
  C 643.54 260.04 653.63 259.08 658.28 251.49
  A 0.70 0.69 30.5 0 1 659.23 251.25
  L 663.57 253.75
  A 0.40 0.40 0.0 0 1 663.75 254.22
  L 634.85 342.93
  A 0.68 0.68 0.0 0 1 633.96 343.36
  L 629.62 341.72
  A 0.83 0.83 0.0 0 1 629.10 340.78
  Q 629.22 340.17 630.62 332.06
  Q 631.71 325.72 630.88 318.33
  C 629.91 309.67 628.25 301.13 624.23 292.52
  C 612.16 266.73 590.85 249.12 564.67 238.78
  Q 538.62 228.48 509.99 227.09
  Q 507.43 226.97 495.67 227.00
  Q 486.72 227.02 481.36 227.54
  Q 459.55 229.64 443.79 234.04
  Q 422.79 239.90 402.26 250.99
  Q 369.04 268.91 345.09 297.87
  C 337.20 307.41 330.00 317.37 323.95 328.13
  Q 290.19 388.13 292.46 457.25
  Q 294.10 507.52 315.66 554.38
  C 336.65 600.01 370.64 636.04 415.09 660.19
  Q 461.18 685.22 515.24 689.98
  Q 531.20 691.38 548.77 691.06
  Q 558.00 690.89 573.65 689.28
  C 591.10 687.49 608.19 683.86 624.37 678.59
  A 0.64 0.64 0.0 0 0 624.77 677.74
  C 613.14 648.44 595.96 607.73 581.44 572.74
  Q 559.90 520.80 550.94 499.81
  C 539.24 472.43 526.26 443.91 495.32 433.42
  C 479.87 428.19 463.88 426.85 447.87 426.94
  A 0.55 0.55 0.0 0 1 447.32 426.39
  L 447.32 420.39
  A 0.48 0.48 0.0 0 1 447.80 419.91
  L 691.18 419.91
  A 0.88 0.88 0.0 0 1 692.06 420.79
  L 692.06 426.01
  A 0.84 0.84 0.0 0 1 691.24 426.85
  Q 680.72 427.04 668.02 426.90
  C 659.87 426.81 650.11 427.49 642.00 427.97
  Q 629.47 428.71 617.14 432.05
  Q 607.12 434.76 603.35 438.77
  Q 597.55 444.96 597.45 452.74
  Q 597.32 462.21 601.37 472.42
  Q 651.74 599.25 677.29 660.28
  Q 678.73 663.72 678.89 664.12
  Q 691.57 695.81 710.13 741.17
  Q 712.01 745.78 723.84 775.39
  Q 724.09 776.02 724.47 776.29
  A 0.49 0.48 25.9 0 0 725.21 776.04
  Q 729.92 760.87 741.04 728.49
  C 755.58 686.16 789.36 591.44 828.15 479.16
  Q 838.20 450.06 839.21 446.48
  Q 840.47 442.04 842.84 431.12
  C 845.55 418.64 845.43 402.62 838.91 391.54
  C 827.52 372.17 801.87 367.81 781.58 368.47
  A 0.76 0.75 88.9 0 1 780.80 367.71
  L 780.80 362.42
  A 0.74 0.73 -90.0 0 1 781.53 361.68
  Z"
/>
<path fill="#644831" d="
  M 336.91 678.32
  A 0.24 0.23 33.3 0 1 337.36 678.23
  C 341.52 688.17 343.71 694.71 347.98 703.07
  Q 355.03 716.85 363.56 728.55
  C 368.79 735.71 375.17 744.01 382.25 751.65
  C 403.04 774.08 427.87 793.31 453.08 809.94
  C 464.80 817.68 472.24 822.96 482.97 829.61
  Q 500.41 840.41 519.70 852.81
  C 550.11 872.37 576.52 890.53 601.73 913.61
  Q 633.37 942.59 653.21 980.71
  A 0.44 0.44 0.0 0 0 653.99 980.72
  C 657.31 974.91 659.96 969.25 663.60 963.59
  Q 674.46 946.72 676.49 943.98
  Q 706.42 903.65 748.33 872.33
  Q 771.06 855.34 801.08 835.55
  Q 821.57 822.04 834.15 813.39
  Q 845.25 805.76 867.29 789.80
  Q 903.75 763.38 932.67 731.44
  C 974.77 684.95 1007.12 618.94 989.12 555.63
  Q 983.16 534.67 968.90 518.11
  Q 965.26 513.89 958.70 508.57
  Q 938.37 492.10 911.50 490.44
  Q 894.37 489.39 878.55 493.37
  Q 861.58 497.64 846.82 505.66
  A 0.51 0.51 0.0 0 1 846.24 504.82
  Q 848.56 502.79 853.21 499.46
  Q 860.22 494.44 870.48 488.56
  Q 887.25 478.94 907.08 475.51
  C 939.81 469.85 971.49 479.72 994.64 503.85
  Q 1000.04 509.49 1003.48 514.53
  Q 1019.63 538.28 1023.73 566.76
  C 1033.37 633.64 996.99 700.74 950.93 746.44
  C 928.08 769.10 902.00 788.92 875.16 807.39
  Q 858.30 818.99 821.84 841.44
  Q 814.38 846.04 813.02 846.97
  C 809.16 849.63 805.58 851.38 801.16 854.21
  Q 786.31 863.71 776.40 870.16
  Q 741.80 892.69 715.00 917.76
  Q 697.63 934.01 688.75 945.25
  C 684.75 950.30 676.66 959.85 671.69 966.79
  Q 657.60 986.44 646.87 1008.10
  A 0.65 0.64 44.4 0 1 645.72 1008.11
  Q 629.39 976.55 605.94 950.04
  C 581.89 922.85 553.46 900.35 524.03 879.96
  Q 480.87 850.06 468.86 841.86
  Q 467.42 840.88 463.15 837.87
  Q 423.54 809.96 407.01 794.62
  Q 398.90 787.10 392.67 780.97
  C 366.66 755.37 346.12 722.80 338.01 687.01
  Q 337.01 682.57 336.91 678.32
  Z"
/>
</svg>
